<svg xmlns="http://www.w3.org/2000/svg" viewBox="0 0 320.96 576.74"><defs><style>.cls-1{fill:#564c4d;}.cls-2{fill:#fcfcfa;}.cls-3{fill:#b7b5b6;}.cls-4{fill:#5c5d63;}.cls-5{fill:#2b2e3a;}.cls-6{fill:#e0dedd;}.cls-7{fill:#474042;}.cls-8{fill:#0f0e10;}.cls-9{fill:#121214;}.cls-10{fill:#191a20;}.cls-11{fill:#141519;}.cls-12{fill:#1f212a;}.cls-13{fill:#282a32;}.cls-14{fill:#d9d7d5;}.cls-15{fill:#adacaf;}.cls-16{fill:#58131d;}.cls-17{fill:#75101a;}.cls-18{fill:#cac8c6;}.cls-19{fill:#eeebe8;}.cls-20{fill:#440c13;}.cls-21{fill:#a4a6a9;}.cls-22{fill:#650e14;}.cls-23{fill:#81838a;}.cls-24{fill:#909296;}.cls-25{fill:#870d17;}.cls-26{fill:#9c9ea1;}</style></defs><title>Asset 1</title><g id="Layer_2" data-name="Layer 2"><g id="Layer_1-2" data-name="Layer 1"><polygon class="cls-1" points="320.96 11.68 316.37 12.91 320.96 11.68 320.96 11.68"/><polyline class="cls-2" points="309.9 466.13 309.9 462.91 309.9 457.56 309.88 446.06 309.88 428.73 309.89 402.83 309.89 393.5 309.89 388.58 309.88 371.98 309.89 357.65 309.89 353.83 309.89 341.29 309.88 336.3 309.79 319.5 309.78 254.34 309.88 250.87 309.89 231.08 309.9 208.04 309.89 200.34 309.89 190 309.9 183.54 309.9 175.52"/><polyline class="cls-3" points="0.64 212.66 2.02 213.69 0.89 221.46"/><polyline class="cls-4" points="0.61 221.2 1.82 213.7 4.57 203.76 5.8 203.61 6.28 204.35 6.35 205.69 5.88 207.91 4.32 217.8 3.1 220.16 2.92 220.57 2.85 230.1 1.39 231.04 0.59 230.98 0.59 230.98 0.58 228.09 0.11 225.24"/><polygon class="cls-5" points="15.4 51.12 15.82 50.94 17.71 45.62 19.23 42.7 21.52 40.39 22.35 38.68 22.82 38.06 25.48 34.97 28.58 32.34 31.66 30.88 32.5 32.32 31.36 34.81 33 33.98 36.7 26.93 36.52 22.9 37.78 21.79 39.29 20.29 41.17 18.86 48.73 11.67 56.35 10.52 59.24 9.17 60.82 7.8 60.85 7.79 62.15 6.75 74.22 2.62 78.82 1.4 82.34 0.87 79.82 3.83 73.59 5.57 80.46 7.47 81.12 7 86.23 3.9 91.6 0.33 93.94 0 106.48 0.01 113.01 0.58 123.29 2.6 130.88 4.12 139.92 5.54 142.57 6.75 143.87 7.59 146.16 8.67 148.15 9.81 153.14 14.5 156.84 16.97 166.75 18.52 172.06 21.41 172.69 21.86 174.06 23.08 175.32 23.75 176.63 24.49 183.73 30.8 190.41 43.48 196.14 51.43 197.51 52.63 198.65 53.68 199.57 55.94 206.44 68.31 207.64 71.5 208.51 75.47 208.79 76.66 209.13 78.64 209.12 79.86 208.37 83.45 206.98 86.11 204.46 84.24 203.45 79.74 200.44 65.16 196.44 61.05 191.62 53.77 190.75 52.02 185.04 43.41 176.26 31.44 173.98 30.38 171.94 29.07 170.28 27.76 166.9 23.04 166.34 21.45 164.35 24.1 159.05 24.19 154.11 22.25 144.41 14.1 137.72 11.84 134.39 12.05 123.88 8.16 117.08 10.89 110.31 11.27 100.35 10.26 94.86 7.44 93.44 7.05 83.67 12.83 81.39 13.9 80.21 16.28 82.14 17.08 86.45 16.67 89.02 18.32 86.94 20.12 83.79 22.75 81.73 24.42 77.51 25.34 70.02 20.3 68.78 17.98 50.99 19.23 45.11 23.67 43.09 25.71 35.41 39.23 35.01 40.47 27.79 43.06 25.31 44.43 20.93 56.52 18.73 60.46 15.89 66.8 13.68 81.45 14.39 88.27 16.96 92.59 15.62 97.11 13.24 101.41 12.9 102.14 8.46 102.72 7.08 101.64 5.67 97.61 1.91 76.2 1.98 75.36 2.4 72.1 2.57 70.53 4.25 67.05 5.51 65.53 8.09 63.21 10.11 60.66 9.7 60 10.07 58.91 11.73 54.78 13.47 52.81 14.59 51.5 15.4 51.12 15.4 51.12"/><polygon class="cls-6" points="18.56 28.71 18.56 28.71 18.56 28.71 18.56 28.71"/><polygon class="cls-7" points="36.52 22.9 35.77 29.69 33.41 34.69 30.65 36.05 31.02 32.94 31.66 30.88 36.52 22.9 36.52 22.9"/><polygon class="cls-7" points="39.29 20.29 37.78 21.79 39.29 20.29 39.29 20.29"/><polygon class="cls-8" points="310.65 250.76 310.74 305.64 310.65 336.55 305.29 334.53 303.91 332.84 302.28 334.58 297.07 336.69 290.7 333.48 289.05 334.38 288.49 338.68 284.49 341.99 276.96 342 273.15 344.74 269.62 350.63 266.77 351.48 254.05 353.95 251 354 241.58 354.26 236.3 353.66 232.6 354.77 224.68 357.57 220.97 353.96 220.08 353.49 219.46 354.76 216.09 363.58 215.09 370.96 211.94 389.28 202.77 389.7 199.09 388.36 190.59 381.11 187.74 378.51 184.29 378.13 182.26 379.39 183.32 381.22 186.32 387.08 189.24 392.39 190.75 395.8 187.89 398.16 184.13 398.34 181.88 400.6 183.49 403.03 190.62 409.18 191.01 412.38 188.3 413.61 186.32 413.48 186.25 416.01 183.64 418.94 180.31 416.86 178.65 411.94 175.33 407.62 174.39 402.53 176.52 389.57 173.49 391.1 170.71 385.04 171.84 381.15 166.29 375.22 161.04 373.12 157.49 371.59 148.67 366.41 144.89 361.68 142.59 357.72 134.45 344.2 132.81 332.03 133.96 330.01 135.46 329.17 141.85 327.22 147.63 323.66 151.75 321.11 157.15 316.39 159.01 314.7 161.57 311.11 166.42 305.46 171.08 300.17 171.63 299.6 175.63 294.91 182.92 283.77 184.99 280.05 187.55 277.3 188.17 276.84 189.6 271.56 190.5 269.75 191.78 266.78 192.82 263.62 193.15 262.97 193.15 261.55 194.27 257.09 194.51 247.22 193.99 242.96 193.55 224.84 193.34 217.77 190.54 206 189.95 204.07 179.99 183.19 175.28 175.96 168.66 167.27 157.16 156.79 152.89 152.54 148.91 150.2 145.83 151.4 140.4 165.36 136.95 170.6 135.05 174.69 123.54 181.84 109.98 183.76 106.86 183.31 94.44 178.75 86.07 179.05 81.62 175.8 78.37 174.27 73.42 170.76 74.81 166.69 81.13 164.1 84.23 159.08 83.46 155.99 85.91 152.72 96.63 150.46 100.93 147.7 110.18 145.92 113.12 149.17 113.76 152.15 113.21 145.06 112.32 143.99 106.78 134.87 104.72 128 103.38 123.29 105.19 118.76 109.88 112.86 112.61 110.02 114.43 102.77 111.22 99.32 108.41 95.8 102.7 89.99 98.24 87.58 97.84 87.17 92.48 82.9 91.43 82.56 86.07 75.53 84.38 72 83.17 69.94 85.16 68.59 88.88 68.97 95.98 69.6 99.3 71.84 100.29 74.19 102.42 74.56 102.38 73.01 104.21 68.99 105.59 68 108.65 65.21 115.55 65.39 118.4 69.46 118.9 71.72 121.51 73.22 128.24 74.99 130.98 77.95 131.68 84.45 128.4 88.11 128.19 89.75 129.7 90.23 138.38 91.42 139.99 91.88 139.97 89.95 140.56 88.07 146.67 87.81 149.11 90.26 144.06 100.41 142.58 105.73 146.76 106.77 149.95 102.64 155.58 93.79 156.77 90.92 157.87 85.36 161.5 85.05 161.91 85.81 167.64 94.76 169.17 100.33 173.2 111.7 175 117.1 175.51 120.73 178.35 130.35 182.25 123.83 188.09 119.08 191.51 120.24 193.01 121.66 197.13 123.04 201.25 127.77 203.23 139.65 205.22 142.63 208.34 148.34 210.25 161.64 212.25 162.53 216.54 162.51 218.21 163.82 216.83 165.48 214.72 166.36 216.75 168.2 216.85 171.87 215.6 173.13 217.31 173.96 222.24 174.01 227.09 176.05 233.1 177.69 235.51 179.19 242.98 183.51 247.18 186.9 245.89 191.61 247.62 194.88 253.55 201.96 253.57 203.12 254.47 206.54 256.96 204.96 261.03 204.32 264.24 208.73 270.03 217.39 272.09 220.22 274.77 223.16 282.97 228 286.15 228.91 289.31 228.72 292.06 232.8 291.49 241.53 291.03 247.72 294.23 243.92 295.58 240.92 297.44 238.27 300.13 240.37 302.57 242.25 307.76 247.95 310.65 250.76 310.65 250.76"/><polygon class="cls-9" points="134.51 330.21 131.67 337.23 133.92 342.77 142.76 355.59 151.85 368.49 157.14 370.68 162.16 373.41 165.33 374.42 172.64 381.52 173.27 389.05 173.53 390.68 174.19 390.6 176.54 387.82 177.26 391.55 176.22 400.68 175.37 402.62 176.59 407.37 178.75 409.04 180.81 416.08 183.44 418.19 185.49 415.8 185.47 414.67 187.93 412.72 190.61 412.01 189.51 409.06 185.86 405.26 183.43 403.91 180.91 400.52 184.04 397.45 188.08 397.34 190.01 395.53 188.66 392.94 185.51 388.26 185.53 385.07 183.47 382.18 181.04 379.25 184.75 377.28 188.13 377.69 191.34 380.96 193.51 384.53 201.68 387.73 203.38 389.14 210.58 389.72 215.03 379.54 213.66 369.38 216.77 361.46 218.51 356.96 218.61 354.96 220.12 351.84 221.96 354.59 224.6 356.84 230.59 356.12 231.87 354.48 236.22 352.72 242.54 352.92 250.21 352.77 255 352.41 262.02 350.51 265.49 350.51 270.02 347.86 273.1 342.34 276.17 341.25 284.86 341.21 287.62 338.78 288.19 333.94 289.55 331.58 291.56 332.93 299.27 336.43 301.45 334.55 303.92 331.52 306.03 334.56 310.65 336.55 310.65 341.19 305.35 341.99 302.26 345.13 306.69 352.27 310.65 353.95 310.65 357.43 306.88 363.71 306.85 368.91 305.17 372.11 303.7 378.4 305.42 374.25 310.65 371.92 310.65 388.73 308.54 389.54 306.61 391.29 308.53 392.6 310.65 393.37 310.65 402.65 308.84 404.52 305.53 404.63 300.69 402.07 298.36 402.38 299.9 404.29 303.29 407.48 301.72 409.36 298.34 408.62 291.7 410.53 288.21 411.53 282.72 412.95 278.24 413.68 274.05 416.34 268.8 417.85 264.84 418.76 262.14 420.27 259.82 421.85 260.91 424.04 270.22 423.1 273.05 425.55 274.4 435.92 277.87 436.71 277.88 434.27 279.33 428.04 283 429.33 283.9 432.37 286.28 434.46 294.06 435 304.76 431.56 305.82 430.22 310.65 428.73 310.65 446.13 308.81 446.7 300.89 446.71 299.32 447.74 296.18 447.25 292.28 446.39 277.64 451.64 273.9 451.9 268.54 449.8 266.41 448.76 255.04 447.31 251.11 447.3 244.11 445.5 235.74 439.94 230.64 440.54 221.94 443.11 212.61 444.58 203.71 447.79 200.34 446.63 199.25 443.51 195.94 451 195.46 453.86 193.11 456.73 191.39 454.04 190.75 444.6 192.35 442.36 195.18 437.17 197.02 432.19 197.13 428.92 196.21 430.33 193.46 435.14 187.07 450.15 187.52 451.8 185.71 458.63 183.74 461.08 178.43 463.91 168.92 463.84 165.33 462.32 167.22 458.54 165.26 453.35 165.62 449.02 162.73 445 161.05 443.98 159.65 437.51 162.44 432.18 167.95 420.48 168.66 411.26 166.78 405.53 165.06 401.14 162.08 394.07 161.93 391.9 166.21 385.26 166.24 383.57 166.45 382.3 166.87 381.57 168.17 379.18 165.3 378.83 155.27 386.82 152.53 387.68 151.2 388.02 148.72 391.19 147.45 392.24 144.03 402.86 143.56 405.47 141.94 406.96 140.47 404.26 137.46 397.75 136.29 398.16 135.32 400.82 135.58 409.96 133.51 414.15 131.24 416.26 134.13 419.14 136.72 420.62 134.41 423.62 133.59 423.91 132.44 427.46 132.5 430.96 131.19 437.94 128.85 440.77 125.03 446.57 125.19 448.01 124.19 449.92 121.85 449.29 120.18 440.05 118.61 422.88 118.74 417.54 118.53 414.54 116.2 414.86 114.46 413.17 114.61 402.16 112.42 396.42 111.46 391.26 111.34 388.25 112.13 381.59 112.29 377.71 111.55 372.56 116.99 369.15 120.02 371.64 120.53 374.6 118.86 364.38 117.37 362.27 113.21 357.24 113.41 351.13 114.73 348.98 112.13 347.88 108.81 344.94 107.06 341.6 103.38 338.27 103.81 337.47 106.08 336.92 117.41 335.97 121.84 334.61 126.93 331.95 129.79 330.54 130.58 330.16 134.51 330.21 134.51 330.21"/><polygon class="cls-9" points="310.65 250.76 307.14 246.89 301.42 243.13 299.73 242.12 299.54 240.71 297.74 238.68 296.35 240.9 293.35 245.24 292.17 247.93 291.31 249.32 290.08 248.01 290.48 234.82 290.93 233.77 291.15 230.36 287.75 229.46 280.88 226.65 275.13 224.12 271.3 219.83 271.02 218.76 266.39 215.59 263.54 210.19 260.85 205.01 256.34 206.77 254.33 208.21 252.88 205.87 252.78 202.99 246.67 195.63 244.68 192.18 246.35 185.59 243.96 183.89 239.52 184.62 234.85 180.14 232.53 178.79 228.17 178.26 219.15 174.78 215.71 174.62 214.02 172.87 215.76 171.35 217.77 170.18 215.89 168.6 214.58 168.06 213.03 166.11 214.99 165.09 216.69 164.84 217.72 163.97 216.69 163.26 212.26 163.52 209.25 161.32 207.69 150.15 202.85 141.88 202.4 140.87 200.65 128.52 196.56 123.72 190.27 121.7 190.49 119.06 187.94 120.49 182.26 124.9 179.12 130.96 178.32 132.78 177.46 131.12 174.44 120.57 174.03 117.83 172.02 111.66 168.41 100 164.7 93.56 162.62 90.23 160.56 84.88 158.71 85.03 157.78 91.2 156.19 94.53 150.68 102.69 148.41 106.67 142.77 107.51 141.93 101.07 143.67 99.55 147.56 96.15 148.11 89.37 146.24 88.46 143.65 88.28 141.18 90.97 140.99 93.12 138.94 92.84 132.54 89.93 130.94 90.71 127.21 90.85 127.84 87.4 131.23 83.85 130.54 78.56 127.63 75.44 120.97 74.4 119.06 75.38 118.28 73.33 118.27 72.76 108.4 65.94 107.17 66.59 103.13 70.19 103.02 72.75 103.68 75.56 99.39 74.56 92.88 70.66 85.66 69.36 83.62 70.27 85.53 71.57 87.12 75.12 88.29 81.17 89.26 81.7 94.17 85.54 95.34 85.98 99.08 87.28 104.15 89.5 109.05 94.9 112.37 98.59 115.27 102.63 115.38 106.93 112.97 110.72 110.38 113.47 106.47 118.86 104.59 125.93 107.47 135.08 110.18 141.94 111.15 142.85 113.98 144.12 114.36 152.93 113.58 153.55 112.83 152.8 112.51 151.71 110.25 146.69 101.59 148.15 94.48 151.38 85.37 153.52 84.16 155.46 85.01 159.06 81.36 165.06 74.96 167.63 74.44 171.35 77.15 173.41 80.22 173.63 82.47 176.1 84.66 178.28 93.47 178.05 105.64 180.83 106.68 182.93 103.43 183.78 91.38 182.97 88.28 183.43 79.39 183.47 69.02 176.37 66.62 173.23 64.49 168.74 62.69 164.91 62.52 163.79 62.16 150.53 61.47 148.45 59.59 149.21 55.99 148.21 55.45 145.39 54.1 143.08 53.06 142.31 52.76 138.96 52.7 136.94 52.58 134.64 54.1 133.32 57.39 134.59 58.32 135.33 61.03 129.94 66.28 130.55 66.53 131.07 74.74 131.92 80.67 124.45 82.66 114.42 83.31 110.95 90.75 102.68 91.97 102.17 96.89 111.63 94.38 118.68 99.56 123.81 100.39 122.2 101.39 118.97 105.65 106.13 106.11 103.92 105.96 99.01 99.19 93.79 95.67 92.38 94.82 96.13 89.89 98.83 83.37 102.27 82.81 103.28 80.63 104.22 79.47 102.08 80.44 98.16 81.13 85.85 79.51 81.61 77.63 80.64 76.76 82.63 77.19 86.65 76.31 89.09 72.08 90.44 68.65 91.8 65.09 91.67 66.99 87.47 69.01 85.86 67.43 83.37 66.58 83.2 64.39 80.06 67.36 77.95 69.21 75.51 71.77 69.54 71.69 66.67 71.35 62.76 75.19 60.98 82.1 56.99 84.99 55.52 86.3 57.78 86.86 58.93 88.18 57.69 90.47 54.68 95.7 56.65 96.36 54.21 98.63 53.16 100.37 54.81 102.83 58.93 105.92 57.81 110.17 55.71 119.07 62.21 119.08 58.54 121.36 54.59 124.99 51.95 130.24 51.85 132.31 53.23 135.27 55.89 132.15 57.92 136.38 60.54 141.72 60.88 146.57 60.44 148.75 60.6 154.13 63.97 157.81 63.6 159.78 66.03 155.97 69.41 158.8 69.71 169.2 74.61 176.55 80.14 180.03 80.2 182.67 82.48 186.49 90.51 187.27 92.92 190.13 97.17 195.32 99.61 196.5 102.51 196.15 106.83 198.76 110.57 201.37 114.17 200.92 118.78 203.21 121.45 209.24 127.02 212.94 132.82 216.27 136.37 215.86 142.45 214.82 145.94 216.88 147.13 222.4 148.9 226.46 151.54 228.96 153.55 231.8 160.79 234.06 162.6 237 165.64 242.13 169.43 248.71 174.82 249.47 179.09 252.5 182.16 255.53 183.74 253.3 186.64 251.71 188.42 253.09 189.74 259.68 194.54 269.83 198.14 270.69 198.03 273.94 199.76 271.4 202.21 269.92 202.86 278.37 206.78 283.79 207.24 287.25 209.37 285.39 212.48 288.89 213.46 291.44 218.41 291.2 220.14 292.66 219.55 294.62 217.82 301.06 219.45 306.88 226.23 310.65 231.04 310.65 250.76 310.65 250.76"/><polygon class="cls-10" points="310.65 200.32 310.65 207.86 309.06 211.81 305.51 213.74 301.3 208.31 296.46 202.38 290.75 198.51 288.5 197.31 280.26 191.68 276.68 188.84 273.08 185.15 271.64 184.35 267.73 182.83 266.69 181.84 264.19 176.33 262.42 173.35 255.15 166.73 251.9 163.36 248.78 159.79 244.63 159 242.19 154.78 237.61 146.09 233.71 144.58 229.7 145.11 226.53 143.82 227.8 140.66 228.16 139.86 222.41 138.01 222.78 133.66 224.05 132.39 222.42 131.35 218.71 129.9 210.77 125.31 209.59 123.83 205.22 111.86 204.18 109.8 199.6 106.87 196.47 103.42 193.86 98.62 192.3 95.75 190.19 92.55 186.19 85.08 184.6 81.21 183.26 78.05 182.13 79.22 179.16 78.73 174.51 74.67 167.16 67.71 163.95 53.6 162.37 51.46 161.2 53.43 157.8 56.04 154.32 53.6 151.33 51.67 144.51 50.66 142.2 46.12 139.75 42.84 132.59 44.94 129.59 45.49 125.57 44.99 124.51 46.46 125.24 49.81 120.61 51.87 119.19 51.62 116.78 53.58 116.9 55.02 115.93 57.26 113.48 56.84 112.04 55.44 108.51 53.56 105.85 52.12 97.64 44.45 89.23 42.41 80.71 45.91 80.03 47.71 75.98 50.64 73.74 54.52 72.84 59.6 69.2 60.82 68.88 57.86 62.08 55.55 62.36 54.8 63.96 51.63 64.68 49.3 69.94 42.43 74.25 39.19 79.31 35.91 79.37 33.52 81.6 29.4 92.18 26.92 95.09 27.66 104.73 26.29 105.78 24.91 109.06 25.26 110.39 28.46 111.77 23.46 115.1 22.23 116.62 22.71 123.31 19.71 127.25 19.7 137.28 21.51 145.76 24.91 154.22 30.82 156.16 30.54 161.3 31.6 171.13 39.89 172.03 42.4 174.52 46.33 177.5 48.77 179.41 49.24 181.64 51.79 182.29 53.55 182.98 54.05 191.02 68.87 196.5 75.99 199.15 79.91 201.54 85.37 202.17 87.48 202.28 95.14 205.17 99.16 208.77 100.97 209.23 101.68 213.29 109.52 213.98 110.01 223.78 119.05 228.5 127.7 231 128.55 237.51 132.34 237.98 133.37 245.94 142.66 251.83 149.51 256.93 154.62 265.02 161.85 266.82 162.67 268.47 163.64 272.82 168.1 275.97 172.84 284 179.33 290.48 184.06 295.65 186.35 298.3 189.9 299.93 191.56 304.95 192.69 306.94 196.45 307.99 198.62 310.65 200.32 310.65 200.32"/><polygon class="cls-11" points="69 60.6 73.34 57.37 71.99 53.77 72.21 51.44 75.08 49.52 79.39 46.91 82.24 44.77 86.48 42.56 87.88 41.52 101.9 47.28 107.42 52.59 110.96 51.83 113.64 56.1 115.69 56.86 116.05 54.86 115.97 52.26 118.84 50.62 124.46 49.77 124.15 47.33 123.13 44.68 125.64 44.26 130.19 44.89 134 42.09 137.38 41.27 140.24 42.02 143.13 45.69 146.08 50.08 153.74 50.28 154.74 51.96 157.67 55.38 160.66 52.02 161.88 50.21 164.53 52.36 168.37 68.72 174.35 73.78 179.8 78.84 180.54 79.95 181.51 78.98 182.04 77.65 183.2 76.39 184.28 77.6 186.57 82.29 187.03 84.69 190.68 92.06 193.06 95.53 194.86 98.17 197.13 101.54 197.16 104.14 200.34 106.05 204.25 107.72 210.51 120.2 210.88 121.5 213.69 125.16 216.53 125.57 217.68 126.39 220.68 130.02 223.16 130.78 225.47 132.49 223.32 134.24 221.77 135.65 222.6 137.26 228.05 139.01 230.03 140.09 228.44 141.22 226.92 143.27 229.4 144.37 235.19 143.13 236.59 143.73 242.88 154.34 244.82 158.15 246.59 158.53 249.72 159.7 252.58 162.78 255.83 166.3 258.73 170.28 262.5 172.53 265.01 176.45 266.92 180.84 268.16 181.97 272.13 183.25 273.96 184.43 276.33 188.01 280.3 190.57 289.62 196.88 291.76 198.11 296.07 201.41 301.19 204.52 301.77 207.28 306.95 213.46 308.35 211.16 310.65 207.86 310.65 231.04 309.82 230.96 304.65 225.29 303.46 224.18 300.76 220.99 298.53 217.78 294.71 218.87 292.63 220.77 290.26 221.18 290.21 218.47 291.49 215.33 288.47 214.25 286.76 214.04 283.73 212.7 285.99 210.9 286.77 209.64 284.87 208.15 276.07 207.39 269.15 203.79 268.59 202.37 270.16 201.5 273.33 199.86 269.72 199.08 259.36 195.15 256.86 193.35 255.1 191.78 253.31 190.75 250.64 188.34 252.56 186.02 253.91 185.67 254.93 183.87 253.48 182.98 248.64 178.2 244.76 170.67 242.31 170.24 236.33 165.79 233.31 163.32 231.25 161.73 230.03 158.89 228.52 154.92 225.46 152.21 222.18 149.97 219.42 147.32 216.65 148.7 214.63 148.08 214.92 142.45 214.46 135.05 213.62 134.25 207.66 124.08 205 122.09 200.39 117.17 196.8 110.9 195.45 108.76 195.85 102.45 194.09 99.97 191.79 99.02 190.11 97.94 186.42 92.43 183.4 86.65 182.37 84.92 181.2 81.34 175.51 80.97 168.69 75.67 160.84 69.43 158.95 70.6 156.46 70.91 154.45 69.16 156.89 68.14 159.35 67.25 157.2 64.07 155.14 64.7 153.57 65.59 153.08 63.74 149.01 61.42 145.92 60.99 142.64 61.09 135.1 60.14 132.64 58.86 130.58 57.9 132.48 56.57 134.8 55.68 132.1 53.95 129.61 52.23 127.8 50.86 125.81 52.08 120.86 55.42 119.63 57.94 120.54 61.24 119.97 63.26 118.03 62.18 109.13 56.03 106.66 57.39 105.86 60.49 101.7 59.08 99.7 55.43 98.36 53.69 96.39 55.83 96.74 57.46 96.22 58.67 95.14 57.71 89.46 55.53 89.16 56.97 87.99 59.66 85.98 60.16 85.35 58.18 84.94 56.04 82.66 57.38 75.55 61.83 70.65 64.29 71.32 65.77 74.17 68.31 71.21 70.43 69.82 75.32 70.67 77.41 68.86 78.89 67.5 78.62 65.06 80.58 67.37 82.52 69.96 86 67.57 88.28 64.94 91.31 55.8 88.97 54.88 88.09 54.65 86.47 54.98 85.74 58.19 82 58.77 81.58 59.56 80.2 57.23 75.56 56.43 72.53 57.88 69.76 58.35 69.15 59.93 67.66 60.49 67.16 62.65 66.4 66.7 63.17 67.2 62.58 68.68 60.83 69 60.6 69 60.6"/><polygon class="cls-11" points="162.33 393.95 165.84 399.16 168.41 405.84 169.7 410.57 168.07 427.03 166.97 428.97 161.2 434.04 160.23 436.89 163.34 444.25 166.4 447.89 165.89 453.9 168.11 457.78 169.14 458.55 167.91 459.4 165.85 461.96 168.49 463.02 178.37 463.31 183.01 460.74 186.06 457.5 187.13 452.58 186.32 448.88 189.15 438.94 193.28 434.27 195.45 430.23 196.59 427.25 198.18 428.72 198.13 432.31 195.99 437.84 192.86 443.1 191.59 445.35 192.51 455.19 193.16 456.29 194.17 455.4 195.44 449.24 198.79 442.08 200.41 442.66 200.21 444.29 204.17 446.65 220.81 442.1 222.81 442.14 230.12 439.82 237.53 439.86 246.83 446.69 250.01 446.75 257.16 447.47 266.26 447.81 269.11 448.87 272.57 451.21 283.31 450.59 291.53 445.98 295.17 444.24 296.89 447.22 297.6 448.32 298.66 447.53 302.23 446.41 302.76 446.51 310.65 446.13 310.65 457.71 293.97 462.72 276.87 465.24 263.4 464.23 260.88 463.43 257.18 460.7 254.01 460.15 252.85 459.81 249.26 458.59 247.75 457.59 246.43 456.51 245.26 455.59 239.16 450.95 226.43 445.9 224.21 446.4 213.66 447.88 209.27 449.31 207.09 450.32 202.7 451.3 197.09 458.4 196.73 459.1 194.94 462.46 191.65 466.86 191.54 469.26 189.74 471.38 188.43 469.14 187.69 467.68 186.11 468.65 184.92 470.63 180.83 479.18 180.24 484.19 181.14 487.68 177.59 492.51 176.37 497.13 174.38 499.96 170.35 500.08 168.4 502.1 165.03 505.62 161.67 503.52 159.57 502.33 156.47 499.32 152.58 495.83 149.34 494.22 153.46 491.25 154.74 478.83 149.35 475.53 150.41 468.89 151.59 457.67 152.16 452.94 155.64 445.98 156.11 443.21 156.69 434.11 155.89 430.76 155.51 429.22 156.09 427.05 156.44 425.87 157.12 422.39 160.93 417.65 163.34 415.69 163.63 413.99 161.81 397.24 162.33 393.95 162.33 393.95"/><polygon class="cls-8" points="310.65 428.73 306.45 431.35 306.14 431.82 297.92 435.53 285.65 435.46 282.99 432.24 282.45 429.78 280.19 428.36 278.91 430.17 279.7 434.65 278.81 437.31 273.7 436.88 272.11 425.55 272.6 423.79 270.13 423.71 262.53 424.71 261.37 424.7 258.25 423.9 261.06 419.74 265.18 416.83 268.11 416.46 273.73 414.68 275.44 413.17 279.64 412.96 291.1 410.25 292.24 408.7 294.43 407.37 301.4 408.61 302.74 408.79 302.4 407.33 299.3 405.24 297.23 403.25 297.34 401.5 300.9 401.12 306.25 404.42 308.15 404.19 310.65 402.65 310.65 428.73 310.65 428.73"/><polygon class="cls-12" points="310.65 200.32 305.42 196.88 305.71 195.81 305.52 193.73 299.5 192.54 297.29 191.52 297.75 189.33 297.09 187.42 285.34 180.59 283.49 180 280.1 177.83 279.02 176.53 273.5 169.9 270.3 167.94 268.15 165.25 266.88 163.4 262.42 159.74 258.73 156.38 255.41 151.81 253.99 150.87 250.53 148.38 246.4 143.97 244.74 142.16 238.18 134.77 236.77 133.62 230.64 129.47 227.25 126.47 223.97 120.94 223.08 120.3 217.74 111.73 215.53 111.09 211.67 108.22 210.32 105.76 208.72 101.76 214.5 103.7 216.35 105.23 220.12 109.25 220.76 111.05 228.54 118.04 230.94 119.55 232.89 121.93 234.18 124.35 243.88 132.03 247.37 136.07 249.82 138.39 253.95 144.25 255.41 146.55 260.31 150.47 265.96 154.16 272.7 161.63 281.03 167.85 290.41 175 294.99 177.39 299.26 180.85 299.91 181.78 306.08 187.89 310.65 189.89 310.65 200.32 310.65 200.32"/><polygon class="cls-13" points="310.65 189.89 303.69 185.6 303.27 184.84 298.76 181.39 294.35 177.99 287.32 173.21 283.23 170.06 269.98 160.71 264.86 154.51 261.22 152.19 259.71 151.16 254.96 147.38 253.13 144.82 249.59 139 246.38 135.45 245.4 134.21 238.62 129.38 238.38 129.24 233.13 124.64 232.5 124.05 229.49 119.9 224.9 116.33 223.82 114.33 223.34 113.32 218.52 107.46 212.51 102.47 208.72 101.76 208.71 101.18 208.54 100.96 203.87 94.48 203.59 89.29 206.2 91.1 206.94 90.94 207.68 91.17 208.18 91.76 212.8 94.98 213.64 95.76 216.1 98.03 222.81 103.75 227.43 109.63 227.98 110.64 229.98 113.29 236.63 118.88 244.16 123.93 248.34 127.98 249.57 128.97 255.28 136.67 258.36 138.88 262.93 142.4 263.78 143.23 263.86 143.99 263.49 147.67 269.39 151.72 271.86 155.07 273.54 156.68 277.44 158.7 284.34 164.42 293.01 171.08 299 174.41 302.96 177.46 307.88 181.75 310.57 183.72 310.65 189.89 310.65 189.89"/><polyline class="cls-12" points="263.75 466.58 263.2 463.53 266.13 463.74 276.44 464.33 297.31 461.67 306.19 458.57 310.65 457.71 310.65 462.92 310.65 462.92 304.96 465.27 300.74 467.23"/><polygon class="cls-8" points="310.65 353.95 302.28 351.28 301.5 349.58 308.91 341.19 310.65 341.19 310.65 353.95 310.65 353.95"/><polygon class="cls-8" points="310.65 371.92 305.94 375.69 303.82 380.82 301.7 376.1 303.79 371.78 306 369.08 306.11 361.85 310.65 357.43 310.65 371.92 310.65 371.92"/><polygon class="cls-8" points="310.65 393.37 308.38 393.37 305.56 391.49 308.38 388.74 310.65 388.73 310.65 393.37 310.65 393.37"/><polygon class="cls-5" points="299.22 174.8 292.29 171.99 286.05 167.63 281.29 163.9 275.73 157.31 274.98 157.12 270.91 154.6 268.07 151.96 261.55 145.78 263.02 143.94 263.64 143.13 264.09 142.71 264.67 143.01 265.07 143.53 265.9 144.03 266.89 144.4 268.68 145.75 270.46 147.62 271.9 149.36 285.76 161.13 285.87 161.39 297.88 171.38 299.22 174.8 299.22 174.8"/><polygon class="cls-14" points="53.92 9.58 53.31 10.01 53.93 9.58 53.92 9.58 53.92 9.58"/><polygon class="cls-1" points="91.6 0.33 85.24 4.89 82.04 8.07 81.25 8.85 73.86 6.97 72.16 5.25 74.13 4.32 79.98 3.1 82.34 0.87 91.6 0.33 91.6 0.33"/><polygon class="cls-15" points="60.82 7.8 59.24 9.17 60.82 7.8 60.82 7.8"/><polygon class="cls-15" points="62.15 6.75 60.85 7.79 62.15 6.75 62.15 6.75"/><polygon class="cls-1" points="9.41 188.23 14.14 180.74 14.07 185.69 8.12 201.02 5.71 203.8 4.57 203.76 4.76 200.38 4.69 200.35 9.41 188.23 9.41 188.23"/><polyline class="cls-1" points="0 233.91 0.59 230.98 1.13 231 1.42 231.25 3.14 232.21 4.8 236.52 5.05 237.61 5.06 239.37 5.02 240.44 5.16 242.93 5.3 244.5 7.3 253.04 7.55 254.71 11.51 268.62 14.25 272.23 14.6 274.77 15.05 278.06 13.15 282.99 10.34 281.13 6.78 270.54 6.9 269.25 5.11 266.97 1.55 252.82 0.52 246.71 0.52 246.71 0.56 245.52 0.83 242.64 0 233.91"/><polyline class="cls-15" points="0.11 225.24 0.58 228.09 0.11 225.24"/><polygon class="cls-16" points="4.67 244.31 4.64 242.67 4.64 240.28 4.64 239.19 4.64 237.97 4.64 236.86 3.84 223.72 5.57 208.89 5.34 207.22 5.85 205.58 5.87 204.33 5.71 203.8 8.48 197.13 13.78 184.75 14.14 180.74 14.48 179.99 14.48 179.99 14.98 179.58 16.69 176.67 17.12 175.92 17.34 175.39 17.66 174.85 20.81 170.17 21.7 169.06 23.13 167.24 24.33 165.92 25.41 165.96 26.04 164.75 27.98 164.37 31.43 159.14 31.61 157.46 32.24 156.89 35.05 157.39 35.56 162.79 37.88 167.1 39.55 170.26 36.16 178.19 35.82 180.34 39.52 180.66 50.98 177.3 53.75 176.06 58 175.18 61.36 175.22 63.51 175.91 62.8 177.87 61.08 181.19 54.76 207.22 53.94 233.46 54.2 237.2 57.58 251.35 59.01 253.49 61.12 259.07 63.19 265.25 69.58 277.41 71.47 281.57 72.5 285.1 76.5 291.08 79.77 295.54 81.66 303.95 80.65 309.75 79.68 313.61 81.47 315.43 83.09 318.56 79.89 318.88 76.3 320.78 74.2 320.68 70.74 319.42 67.31 315.13 65.18 314.25 64.83 315.84 64.73 317.45 63.41 319.01 60.43 320.25 57.48 321.1 56.7 321.08 54.26 319.79 53.08 318.61 46.93 315.4 44.42 314.03 41.22 312.18 32.51 302.66 27.68 297.32 28.48 294.58 22.43 290.17 21.85 289.18 13.96 275.05 13.92 272.21 9.41 262.35 6.98 254.79 6.97 253.08 6.12 247.86 4.67 244.31 4.67 244.31"/><polygon class="cls-17" points="5.34 207.22 5.47 213.24 4.69 217 4.64 236.86 2.75 232.28 1.56 231.04 1.71 230.06 2.86 228.39 2.48 220.65 3.44 218.14 5.34 207.22 5.34 207.22"/><polygon class="cls-17" points="5.87 204.33 6.71 204.83 5.85 205.58 5.87 204.33 5.87 204.33"/><polygon class="cls-1" points="1.71 230.06 1.72 230.91 1.22 231.09 1.13 231 1.71 230.06 1.71 230.06"/><polygon class="cls-12" points="204.07 89.58 204.11 93.99 208.71 101.18 202.39 98.98 201.79 97.47 201.6 87.3 201.25 86.02 198.21 78.93 197.17 77.28 190.51 71.28 190.19 70.5 188.36 62.61 187.88 61.61 183.1 55.39 179.47 53.37 179.5 53.19 181.05 50.4 178.02 50.82 176.9 49.98 174.17 47.13 171.41 42.14 170.31 40.36 168.73 39.86 160.16 31.6 157.76 30.63 149.84 29.86 146.54 27.11 140.69 22.03 139.88 21.8 130.76 21.91 127.37 20.71 123.39 20.72 122.08 21.65 117.39 23.43 114.68 22.93 113.44 21.98 112.54 23.32 111.67 28.19 110.32 29.78 109.06 28.39 108.97 27.55 107.44 24.32 105.52 26.67 94.79 28.32 91.61 28.22 82.25 30.16 79.36 31.45 80.41 33.29 81.06 34.17 75.16 39.91 70.36 43.3 64.94 49.59 66.18 43.39 65.59 40.7 65.35 36.13 71.62 30.77 77.58 25.84 79.41 25.2 98.44 22.84 100.06 23.09 102.13 23.35 102.21 20.21 98.47 16.61 98.04 11.38 100.3 9.58 111.64 11.3 117.87 9.4 126.45 7.42 132.7 9.19 134.51 11.9 138.66 13.48 142.5 14.23 151.38 22.57 153.15 23.89 154.38 24.26 158.5 25.57 159.64 25.75 165.52 29.85 171.32 33.7 179.97 39.54 182.04 41.26 185.08 46.04 188.34 51.66 191.78 56.53 192.75 57.84 197.96 66.97 202.32 77.36 204.79 86.88 205.6 88.45 205.29 89.71 204.07 89.58 204.07 89.58"/><polygon class="cls-10" points="58.56 82.05 55.08 86.11 52.72 86.8 50.14 87.2 49.27 85.39 44.98 82.01 41.54 79.05 41.15 77.37 39.15 74.14 36.34 75.78 35.48 76.8 38.12 78.11 39.75 81.32 37.57 83.17 36.33 85.25 31.67 93.29 28.21 80.75 27.3 74.01 26.32 76.97 26.62 86.2 27.26 88.08 27.1 94.51 23.67 95.38 21.71 90.01 21.73 87.5 19.68 71.46 20.58 69.05 22.61 63.19 25.48 60.87 27.65 63.91 27.58 68.58 29.91 58.04 31.67 49.47 32.16 48.78 34.79 40.31 34.8 39.15 40.37 32.48 45.47 29.19 50.37 25.84 53.18 24.23 58.84 24.55 61.91 27.69 63 31.42 62.86 32.73 52.7 44.34 51.95 45.3 49.97 49.09 49.14 51.24 48.2 53.14 47.99 54.2 48.02 56.35 45.77 60.91 43.78 71.55 45.07 70.2 49.65 68.36 52.52 72.74 52.64 79.9 54.54 81.28 58.56 82.05 58.56 82.05"/><polygon class="cls-12" points="34.79 40.31 35.85 41.78 32.47 49 30.54 48.06 32.47 49 32.2 53.95 30.45 59.52 28.93 67.89 27.45 70.34 26.18 67.86 26.89 63.63 26.56 61.96 24.1 61.53 23.27 63.39 21.44 69.1 20.38 71.41 20.98 84.79 21.89 86.21 22.39 90.53 22.61 92.75 26.02 94.97 26.42 88.42 25.59 86.67 25.53 76.41 25.92 73.88 27.44 72.43 28.37 74.05 28.94 78.3 31.88 93.07 32.59 94.22 34.64 102.75 37.57 108.21 41.64 120.8 42.59 130.43 44.3 138.61 43.46 141.92 40.33 147.57 37.16 148.96 38.03 142.43 38.75 138.86 36.9 140.19 31.55 139.72 29.73 132.48 30.54 124 29.37 115.32 28.39 113.76 27.16 114.77 20.82 113.84 20.99 112.5 19.04 105.27 14.79 99.03 15.08 97.12 16.24 92.48 14.97 87.75 13.33 81.47 13.56 72.07 16.36 62.21 18.27 59.83 20.17 56.5 24.08 45.05 29.82 42.86 32.42 41.78 34.79 40.31 34.79 40.31"/><polygon class="cls-13" points="48.71 51.33 49.29 49.01 51.6 44.95 52.18 44.37 57.22 38.48 62.61 32.76 62.63 31.62 65.73 24.78 66.33 23.56 68.61 18.15 69 17.12 70.69 19.03 72.76 24.08 77.95 24.55 81.35 23.87 83.03 21.69 84.94 19.43 86.38 19.41 88.57 18.32 86.27 17.5 81.99 17.84 78.98 16.62 80.96 12.87 85.74 9.33 89.34 7.31 93.35 6.09 95.81 7.62 97.7 9.59 100.3 9.58 98.19 12.11 98.77 15.98 103.57 20.02 101.54 25.46 99.28 23.59 93.1 25.12 79.47 25.84 78.92 25.85 73.62 30.17 72.49 31.71 66 36.63 64.84 38.69 67.03 40.27 67.81 42.71 64.94 49.59 64.36 51.9 62.62 54.8 62.61 55.38 63.26 59.26 64.09 61.76 60.3 67.55 60.29 67.55 58.56 69.29 58.56 69.3 55.36 72.58 52.64 68.97 50.05 64.02 48.03 62.92 45.23 60.6 47.55 55.96 47.55 54.22 47.56 53.07 48.71 51.33 48.71 51.33"/><polygon class="cls-13" points="204.66 87.27 203.62 86.91 201.55 78.32 199.36 70.86 195.88 67.22 195.34 65.78 192.99 62.89 191.55 58.97 191.03 56.56 187.1 50.56 184.82 47.3 181.4 41.3 180.45 40.37 175 36.96 171.45 35.33 170.5 34.37 165.18 30.69 162.88 29.55 157.72 26.23 154.22 24.65 153.06 24.65 150.81 23.34 147.13 19.69 146.61 19.47 135.69 13.98 134.51 11.9 143.06 11.89 144.98 13.32 155.33 22.01 158.03 23.41 159.01 23.82 164.3 23.44 166.16 23 164.83 21.65 164.26 20.52 165.51 20.25 167.46 23.49 172.66 26.79 175.03 29.65 179.38 32.98 185.16 42.05 192.41 52.46 192.67 52.95 194.75 58.53 197.11 60.26 198.44 61.18 198.82 61.93 201.8 64.06 202.16 67.69 202.42 69.67 205.18 83.65 207.06 85.56 206.94 86.24 207.3 86.93 206.6 87.66 206.39 87.91 206 87.92 204.66 87.27 204.66 87.27"/><polygon class="cls-13" points="15.08 97.12 20.32 105.2 21.08 113.38 23.45 114.8 26.76 113.73 28.21 112.39 29.88 113.69 29.9 117.46 29.79 119.4 31.69 127.4 30.39 133.1 32.49 139.78 37.13 138.62 38.69 137.25 39.87 139.05 39.18 142.51 37.11 148.74 36.83 149.82 35.02 151.5 32.01 151.82 30.24 151.74 27.64 150.98 26.97 150.38 26.92 148.24 30.91 143.48 26.16 138.91 26.54 131.06 25.78 123.3 24.73 121.92 13.78 112.56 12.81 110.87 12.17 109.25 11.8 108.66 11.48 107.82 9.64 106.3 7.75 103.74 8.7 102.34 11.11 103.59 12.76 101.76 13.35 102.3 12.76 101.76 15.08 97.12 15.08 97.12"/><polygon class="cls-12" points="69 17.12 69.56 21.06 67.75 23.61 66.56 25.47 62.62 31.62 61.26 27.54 59.54 25.2 52.6 24.82 51.09 26.52 46.5 30.2 40.64 34.14 34.8 39.15 35.59 35.95 37.32 32.25 45.2 22.05 54.83 17.28 69 17.12 69 17.12"/><polygon class="cls-7" points="2.25 84.98 1.45 77.97 2.17 75.47 6.45 97.35 7.58 101.72 7.22 101.98 4.48 97.15 3.82 91.99 2.93 89.58 2.73 88.5 2.31 86.11 2.25 84.98 2.25 84.98"/><polygon class="cls-13" points="13.33 81.47 16.46 87.91 16.24 92.48 13.52 88.84 13.33 81.47 13.33 81.47"/><polygon class="cls-4" points="10.33 59.37 12.09 54.7 10.33 59.37 10.33 59.37"/><polygon class="cls-13" points="7.81 62.67 8.16 62.37 10.39 60.04 11.41 62.04 8 63.52 7.81 62.67 7.81 62.67"/><polygon class="cls-4" points="7.81 62.67 8 63.52 5.87 65.85 7.81 62.67 7.81 62.67"/><polygon class="cls-4" points="10.39 60.04 8.16 62.37 9.7 60 10.39 60.04 10.39 60.04"/><polygon class="cls-7" points="2.08 72.72 2.37 72.26 2.91 72.21 2.24 75.06 2.08 72.72 2.08 72.72"/><polygon class="cls-4" points="3.08 70.53 4.55 66.87 3.08 70.53 3.08 70.53"/><polygon class="cls-7" points="8.7 102.34 8.07 103.5 7.28 102.02 7.58 101.72 8.7 102.34 8.7 102.34"/><polygon class="cls-18" points="208.47 76.79 208.74 78.56 208.47 76.79 208.47 76.79"/><polygon class="cls-19" points="195.99 51.89 196.91 53.45 195.99 51.89 195.99 51.89"/><polygon class="cls-4" points="13.93 53.07 14.96 51.77 13.93 53.07 13.93 53.07"/><polygon class="cls-18" points="172.48 22.5 173.92 23.5 172.48 22.5 172.48 22.5"/><polygon class="cls-20" points="78.89 182.88 89.81 181.81 90.96 181.8 106.68 182.93 115.3 182.87 121.76 181.23 123.89 180.64 125.86 180.45 134.5 174.21 140.61 166.95 143.1 161.86 144.28 159.64 148.3 153.9 153.06 152.18 154.91 152.78 163.11 160.46 173.33 171.31 187.69 197.73 189.61 201.87 192.46 211.83 193.64 217.7 194.21 224.08 194.85 245.04 195.38 247.84 193.62 248.05 192.85 242.77 192.96 235.3 192.24 233.02 190.54 234.56 184.85 235.43 181.12 235.84 176.89 236.38 174.41 234.09 171.84 230.14 157.84 224.01 150.86 221.91 145.14 219.63 140.37 220 135.45 218.38 129.82 212.33 127.44 211.36 124.49 208.46 122.33 206.79 116.19 205.44 114.21 204.11 111.73 202.55 111.06 202.22 109 201.59 106.17 200.2 98.92 196.4 97.07 195.5 89.52 191.09 88.76 190.8 85.16 188.66 84.44 188.33 82.66 187.44 80.29 186.54 78.56 183.18 78.89 182.88 78.89 182.88"/><polygon class="cls-17" points="190.13 234.49 190.36 233.11 192.46 231.64 193.6 233.55 193.63 244.69 193.65 247.85 194.1 248.56 190.97 260.91 190.74 262.79 190.94 264.89 190.53 267.5 187.15 274.39 182.94 282.18 181.99 283.6 175.37 295.23 171.66 300.07 171.63 300.05 166.97 305.8 162.35 311.11 151.83 319.28 143.37 323.24 132.99 327.67 129.95 328.46 125.17 331.64 114.84 333 113.45 333.12 105.74 334.48 104.71 335.82 103.59 337.46 102.71 337.51 97.28 337.27 95.29 337.14 80.35 334.55 73.63 333 71.78 331.69 71.38 329.87 72.22 327.31 73.38 327 77.9 327.19 80.3 327.95 86.66 329.65 92.45 329.96 93.29 329.85 95.78 321.75 95.13 321.21 92.83 316.48 92.23 316.14 91.32 315.81 90.4 315.87 89.32 316.54 88.4 316.92 87.22 318.1 85.94 319.11 82.88 318.67 80.39 315.73 78.86 313.94 82.9 307.59 85.8 305.27 89.85 302.83 93.57 299.19 98.79 297.86 102.4 297.26 115.47 289.31 122.29 288.05 127.31 286.56 129.28 285.46 134.84 282.68 147.82 270.64 152.55 261.11 156.09 255.01 157.27 253.44 160.45 245.27 161.88 238.86 163 237.1 164.71 238.62 165.68 242.2 166.03 244.53 166 249.83 164.81 254.63 162.82 262.12 158.07 273.53 151.32 284.27 147.74 287.57 123.78 305.53 129.1 308.7 123.89 316.82 115.18 323.02 120.76 322.03 116.5 327.44 112.33 327.39 117.62 327.89 125.1 325.51 134.34 322.52 147.35 317.26 149.25 315.6 154.81 311.08 157.46 308.97 164.88 300.26 177.18 285.02 189.56 255.02 190.59 250.24 190.6 248.97 191.06 244.92 189.91 243.14 188.66 238.45 190.13 234.49 190.13 234.49"/><polygon class="cls-9" points="153.06 152.18 148.39 155.69 145.74 159.46 143.76 163.14 143.63 164.26 134.5 174.21 135.96 170.82 141.46 159.68 144.17 153.58 146.8 149.06 151.41 150.98 153.06 152.18 153.06 152.18"/><polygon class="cls-9" points="151.99 318.65 158.37 314.15 162.35 311.11 162.28 312.23 151.86 322.07 149.03 323.68 142.97 327.78 135.68 329.66 137.71 326.96 151.99 318.65 151.99 318.65"/><polygon class="cls-16" points="175.07 295.37 176.57 292.15 180.22 285.63 185.98 275.16 188.05 269.72 190.15 267.55 190.74 269.87 190.14 271.63 187.82 277.36 187.78 277.39 185.49 280.27 180.95 289.29 175.71 295.44 175.07 295.37 175.07 295.37"/><polygon class="cls-16" points="151.99 318.65 149.95 320.83 136.12 328.65 135.68 329.66 134.51 330.21 130.49 330.84 129.75 327.97 136.29 326.13 143.85 321.6 151.99 318.65 151.99 318.65"/><polygon class="cls-16" points="190.12 261.19 192.51 256.42 193.65 247.85 195.38 247.84 195.65 250.46 195.82 253.71 195.87 255.71 193.64 262.38 193.77 262.72 193.64 262.89 193.6 262.93 190.18 264.68 190.12 262.35 190.12 261.19 190.12 261.19"/><polygon class="cls-9" points="234.84 191.43 231.94 188.19 234.56 186.54 238.09 188.63 234.84 191.43 234.84 191.43"/><polygon class="cls-20" points="190.18 264.68 193.6 262.93 192.35 268.79 190.74 269.87 190.15 267.55 190.18 264.68 190.18 264.68"/><polygon class="cls-16" points="194.21 224.08 192.59 219.54 193.64 217.7 194.21 224.08 194.21 224.08"/><polygon class="cls-16" points="166.97 305.8 171.63 300.05 166.97 305.8 166.97 305.8"/><polygon class="cls-9" points="166.72 119.34 165.47 121.35 164.2 119.25 165.65 117.08 166.72 119.34 166.72 119.34"/><polygon class="cls-9" points="181.27 139.64 180.09 141.64 178.67 139.2 179.84 137.36 181.27 139.64 181.27 139.64"/><polygon class="cls-9" points="240.5 195.17 242.83 197.15 241.31 198.45 239.06 197.02 240.5 195.17 240.5 195.17"/><polygon class="cls-20" points="187.82 277.36 190.14 271.63 190.14 275.02 187.82 277.36 187.82 277.36"/><polygon class="cls-20" points="175.07 295.37 175.71 295.44 171.66 300.07 175.07 295.37 175.07 295.37"/><polygon class="cls-9" points="249.94 206.27 248.2 207.15 246.53 206.05 248.09 205.02 249.89 205.51 249.94 206.27 249.94 206.27"/><polygon class="cls-9" points="143.9 96.12 142.72 96.99 141.59 95.28 142.65 94.35 144.81 94.87 143.9 96.12 143.9 96.12"/><polygon class="cls-9" points="237.6 196.02 236.81 194.09 237.72 192.99 238.71 194.11 237.6 196.02 237.6 196.02"/><polygon class="cls-20" points="185.49 280.27 187.78 277.39 185.49 280.27 185.49 280.27"/><polygon class="cls-9" points="107.63 88.11 110.34 88.11 110.41 88.71 107.67 88.96 107.63 88.11 107.63 88.11"/><polygon class="cls-9" points="197.12 131 196.62 129.61 197.12 128.78 197.62 129.61 197.12 131 197.12 131"/><polygon class="cls-9" points="87.08 171.27 87.86 172.31 87.21 172.93 86.52 172.24 87.08 171.27 87.08 171.27"/><polygon class="cls-9" points="267.26 222.45 266.88 223.21 266.22 222.62 266.63 222.08 267.26 222.45 267.26 222.45"/><polygon class="cls-20" points="193.64 262.89 193.64 262.38 193.85 262.76 193.64 262.89 193.64 262.89"/><polyline class="cls-11" points="95.34 371.64 103.44 369.8 104.04 372.69 104.55 376.37 106.25 363.82 106.41 362.58 104.59 351.75 103.87 350.21 100.3 347.5 97.18 344.82 96.63 344.22 96.42 343.02 97.08 341.14 96.66 340.31 94.87 338.73 95.87 337.32 102.18 336.86 103.79 338.32 103.79 338.32 108.17 341.42 109.52 345.14 109.81 346.79 112.11 347.11 116.23 350.31 114.49 351.49 112.13 354.16 115.19 357.42 117.08 359.24 120.17 364.57 122.27 371.96 121.67 375.05 120.71 376.32 119.53 374.99 119.34 371.84 117.63 369.81 115.46 370.65 114.23 371.79 112.04 373.28 113.02 377.23 112.72 382.18 112.03 388.07 112.14 391.5 112.59 395.49 115.42 402.65 115.38 414.49 115.94 414.38 118.3 412.9 119.88 416.24 121.03 427.25 120.87 440.26 122.41 448.81 123.8 449.51 124.52 447.89 125.33 440.95 127.15 440.12 130.34 438.81 129.7 436.63 129.74 434.5 131.54 431.22 131.05 427.15 129.43 424.22 132.3 423.48 135.43 422.15 136.14 420.13 134.53 420.22 130.21 416.28 132.56 413.62 134.11 408.18 133.75 404.77 134.53 400.93 135.7 397.54 137.99 395.96 138.66 398.26 141.38 401.13 141.38 403.7 142.07 406.71 142.68 407.98 142.04 408.47 140.69 411.48 141.87 416.97 141.36 417.58 142.15 417.54 142.6 421.91 141.87 427.43 142.04 431.68 141.8 434.15 141.62 435.68 140.65 436.38 136 441.58 134.88 443.81 134.69 444.53 133.59 445.42 133.15 446.32 133.24 447.32 133 447.99 132.2 449.94 130.83 453.52 130.37 454.13 128.7 456.18 126.72 459.45 126.45 461.78 125.69 463.12 125.51 463.82 125.5 464.64 123.13 472.85 122.34 473.23 113.87 474.76 109.1 472.55 109.19 470.45 111.49 469.84 114.59 470.2 114.03 465.19 113.85 461.83 114.31 459.2 112.57 457.67 107.73 447.83 107.06 439.03 105.96 435.25 105.47 426.33 105.47 423.74 104.02 418.01 102.59 411.65 100.17 409.85 95.77 407.39 92.05 395.64 97.1 380.79 96.3 374.38 95.34 371.64"/><polygon class="cls-10" points="162.33 393.95 163.74 401.94 164 403.89 164.34 411.91 163.82 417.26 161.69 418.47 157.99 422.83 156.53 426.42 155.13 419.96 154.46 411.16 151.5 408.22 150.83 405.74 152.21 397.19 154.52 392.72 156.46 389.54 166.01 379.13 167.6 379.52 166.97 381.77 166.97 382.35 166.97 383.52 166.97 385.25 162.33 391.63 162.33 393.95 162.33 393.95"/><polygon class="cls-8" points="214.58 415.98 223.54 418.49 226.3 418.56 230.42 418.94 231.9 422.36 229.59 422.91 226.72 422.78 223.61 422.98 222.56 427.73 222.58 431.01 218.84 431.27 210.17 430 206.84 431.83 204.61 432.55 203.53 430.8 203.03 427.99 204.82 422.31 205.54 421.11 214.58 415.98 214.58 415.98"/><polygon class="cls-11" points="151.75 405.34 150.76 396.82 150.37 395.3 148.42 391.05 151.19 386.52 153.62 387.02 153.65 387.94 156.17 384.34 162.26 379.87 164.53 378.27 168.37 378.05 169.16 380.14 166.97 381.77 167.06 379.64 165.1 380.48 160.32 384.09 157.05 391.35 155.7 392.93 153.22 397.27 153.1 399.38 152.57 402.1 151.75 405.34 151.75 405.34"/><polygon class="cls-16" points="104.98 333.71 109.57 333.66 111.23 333.52 118.02 332.49 125.28 331.34 130.01 330.93 127.89 332.68 122.37 334.87 117.73 336.57 113.98 336.6 105.99 337.68 104.98 333.71 104.98 333.71"/><polygon class="cls-8" points="259.73 390.33 256.81 394.46 255.23 393.14 254.6 383.97 256.16 382.04 258.31 383.36 259.73 390.33 259.73 390.33"/><polygon class="cls-7" points="150.84 395.12 150.76 396.82 147.76 398.01 143.56 402.9 146.32 392.13 147.26 391.63 149.41 392.34 150.84 395.12 150.84 395.12"/><polygon class="cls-8" points="267.85 437.1 266.54 439.08 264.27 437.45 262.19 436.25 260.44 435.06 262.05 433.96 263.68 433.42 267.85 437.1 267.85 437.1"/><polygon class="cls-8" points="281.8 359.1 283.93 356.45 286.41 359.48 286.51 360.92 285.62 363.78 282.35 361.24 282.35 359.5 281.8 359.1 281.8 359.1"/><polygon class="cls-8" points="294.51 346.56 291.82 344.39 294.51 342.42 297.22 344.15 294.51 346.56 294.51 346.56"/><polygon class="cls-1" points="130.01 330.93 125.28 331.34 129.75 327.96 130.49 330.84 130.01 330.93 130.01 330.93"/><polygon class="cls-11" points="162.33 391.63 166.97 385.25 162.33 391.63 162.33 391.63"/><polygon class="cls-10" points="150.84 395.12 149.06 393.19 147.26 391.63 148.42 391.05 151.25 392.69 150.84 395.12 150.84 395.12"/><polygon class="cls-8" points="183.17 431.38 181.74 429.4 183.61 427.65 184.76 429.22 183.17 431.38 183.17 431.38"/><polygon class="cls-4" points="104.98 333.71 105.99 337.68 103.83 337.68 103.64 337.1 103.86 335.42 104.98 333.71 104.98 333.71"/><polygon class="cls-20" points="117.73 336.57 122.37 334.87 117.73 336.57 117.73 336.57"/><polygon class="cls-8" points="292.53 349.11 291.35 350.9 290.53 348.83 291.44 347.16 292.53 349.11 292.53 349.11"/><polygon class="cls-8" points="288.28 441.09 289.77 443.64 288.97 444.87 287.62 443.02 288.28 441.09 288.28 441.09"/><polygon class="cls-8" points="253.74 429.3 251.49 430.78 250.59 429.69 252.28 428.25 253.74 429.3 253.74 429.3"/><polygon class="cls-8" points="300.86 368.39 299.31 368.96 297.57 368.09 298.87 367.34 300.82 367.71 300.86 368.39 300.86 368.39"/><polygon class="cls-8" points="274.81 361.96 275.31 364.68 274.29 365.92 273.71 363.94 274.81 361.96 274.81 361.96"/><polygon class="cls-8" points="218.88 367.46 219.65 369.25 218.7 370.59 218.06 369.22 218.88 367.46 218.88 367.46"/><polygon class="cls-8" points="175.4 418.48 176.17 420.26 175.22 421.61 174.58 420.24 175.4 418.48 175.4 418.48"/><polygon class="cls-7" points="143.06 405.55 143.67 407.22 143.23 408.02 142.63 407.88 142.07 406.71 143.06 405.55 143.06 405.55"/><polygon class="cls-8" points="298.77 355.35 298.67 353.17 299.42 353.08 299.7 355.26 298.77 355.35 298.77 355.35"/><polygon class="cls-8" points="227.52 431.89 227.52 429.67 228.13 429.6 228.38 431.84 227.52 431.89 227.52 431.89"/><polygon class="cls-8" points="281.34 374.65 280.69 375.63 280.11 374.9 280.5 373.98 281.34 374.65 281.34 374.65"/><polygon class="cls-8" points="236.54 423.72 236.08 424.39 235.51 423.71 235.97 423.24 236.54 423.72 236.54 423.72"/><polygon class="cls-8" points="233.16 423.92 232.4 424.39 231.91 423.21 232.43 423.08 233.16 423.92 233.16 423.92"/><polygon class="cls-8" points="202.92 420.82 202.46 421.49 201.89 420.81 202.35 420.35 202.92 420.82 202.92 420.82"/><polygon class="cls-11" points="166.97 383.52 166.07 382.8 166.97 382.35 166.97 383.52 166.97 383.52"/><polygon class="cls-16" points="103.64 337.1 103.83 337.68 103.79 338.32 102.5 337.24 103.32 337.14 103.64 337.1 103.64 337.1"/><polygon class="cls-11" points="31.89 94.23 31.88 93.07 34.99 90.49 36.09 87.13 35.46 83.83 37.02 82.34 39.2 81.71 38.26 79.1 35.7 78 33.75 77.22 35.28 75.71 36.52 74.55 39.14 73.15 41.65 76.17 47.59 81.21 49.11 82.02 50.44 87.27 49.44 88.89 47.6 94.79 52.33 108.41 56.8 123.83 57.12 130.09 63.51 125.08 66.09 125.21 68.58 129.96 70.73 132.55 73.45 130.03 73.69 127.45 74.9 123.39 76.75 110.41 76.77 104.72 73.38 101.15 70.21 101.35 65.66 97.77 68.34 93.58 70.41 92.54 68.99 91.32 72.19 89.6 75.95 89.01 74.31 95.11 73.6 97.57 76.04 97.89 76.27 95.72 77.72 91.78 76.53 86.69 76.04 81.85 77.59 79.42 79.82 80.65 81.86 87.53 81.2 97.68 80.33 101.26 80.85 103.81 82.6 102.28 85.15 98.67 89.13 97.82 94.04 94.41 95.67 91.05 98.03 92.42 99.84 93.07 107.31 99.89 109.58 102.36 106.64 104.47 106.17 108.58 102.92 118.05 101.3 123.19 98.78 124.72 94.48 123.07 94.07 116.82 96.89 106.95 94.62 104.57 91.36 102.73 84.22 111.28 83.38 114.05 82.28 123.42 76.17 131.4 74.2 133.84 70.89 135.89 67.59 134.01 65.21 129.9 63.04 129.26 59.52 134.67 58.14 136.43 56.43 135.29 56.29 133.25 54.09 134.3 52.76 134.81 51.85 138.74 51.48 142.08 49.98 143.78 49.14 144.13 43.48 147.12 39.99 147.57 42.42 141.86 42.42 137.81 41.76 135.19 40.93 123.78 37.44 110.97 37.1 108.14 34.56 102.05 36.27 97.07 31.89 94.23 31.89 94.23"/><polygon class="cls-20" points="63.2 175.95 61.69 175.74 58.05 175.9 54.01 176.83 49.88 177.53 49.38 177.25 40.01 181.73 39.89 182.27 34.86 181.26 34.73 178.78 38.97 169.93 37.57 167.82 34.39 163.48 34.82 157.41 47.26 147.49 48.86 147.64 49.15 149.29 52.27 155.23 54.98 160.74 57.59 166.54 64.23 169.77 67.26 173.05 69.97 176.2 77.92 181.59 78.89 182.88 78.83 182.94 74.63 182.6 70.34 180.39 69.33 179.85 68.49 178.28 68.06 177.75 67.08 176.78 66.56 176.29 63.89 176.09 63.2 175.95 63.2 175.95"/><polygon class="cls-10" points="68.99 91.32 70.15 91.34 72.35 92.15 70.43 93.58 66.73 98.42 69.67 100.54 72.25 100.53 77.44 106 78.17 111.79 78.65 116.8 75.81 123.57 74.28 130.26 70.61 133.54 67.74 130.03 66.09 125.53 71.22 120.35 72.36 118.06 73.59 116.47 73.89 112.28 70.68 112.15 66.98 111.04 61.87 111.48 57.31 114.35 53.5 109.36 50.83 101.18 51.27 94.84 55.66 88.42 59.4 90.55 61.13 91.14 64.94 91.31 68.99 91.32 68.99 91.32"/><polygon class="cls-10" points="67.26 173.05 66.15 173.01 59.76 168.88 56.34 166.81 53.97 161.39 51.77 155.9 47.4 151.9 47.84 150.15 48.7 147.57 48.87 147.25 50.55 145.39 51.05 144.83 53.36 142.33 54.5 142.34 55.95 148.39 58.52 155.3 60.09 159.91 63.2 164.95 66.75 170.33 67.26 173.05 67.26 173.05"/><polygon class="cls-12" points="82.29 139.93 83.78 138.31 85.78 137.37 89.37 136.9 91.4 142.13 91.96 145.77 91.63 148.44 81.62 152.49 80.19 152.09 81.19 142.34 82.47 144.75 82.95 148.14 84.51 149.07 86.01 147.93 85.05 146.65 82.29 139.93 82.29 139.93"/><polygon class="cls-11" points="63.2 164.95 58.93 158.48 55.75 152.11 55.16 151.2 54.5 142.34 56.2 145.26 56.82 148.34 59.15 148.79 61.67 147.17 62.99 150.36 64.04 156.39 63.88 159.93 63.2 164.95 63.2 164.95"/><polygon class="cls-10" points="76.53 86.69 79.07 90.69 77.2 94.2 77.29 96.03 77.51 98.13 72.93 98.27 72.58 95.98 75.95 89.01 76.53 86.69 76.53 86.69"/><polygon class="cls-8" points="98.22 126.3 102.36 130.35 98.03 133.44 95.02 129.57 98.22 126.3 98.22 126.3"/><polygon class="cls-7" points="82.29 139.93 83.44 143.06 85.51 145.96 87.38 148.15 83.88 150.28 82.31 148.73 81.19 142.34 82.29 139.93 82.29 139.93"/><polygon class="cls-12" points="53.36 142.33 51.08 145.24 50.47 143.6 51.02 142.37 51.1 136.71 52.76 134.81 53.34 137.13 53.34 138.28 53.36 142.33 53.36 142.33"/><polygon class="cls-8" points="275.23 211.55 273.33 213.63 270.18 210.57 272.51 208.53 275.23 211.55 275.23 211.55"/><polygon class="cls-11" points="64.35 139.92 61.91 142.7 60.44 139.61 62.17 136.76 64.35 139.92 64.35 139.92"/><polygon class="cls-8" points="84.04 92.22 86.14 90.38 88.05 92.17 85.78 94.02 84.04 92.22 84.04 92.22"/><polygon class="cls-11" points="144.23 65.98 143.38 64.35 144.63 63.62 145.35 64.55 144.23 65.98 144.23 65.98"/><polygon class="cls-11" points="90.19 96.18 89.55 95.21 90.27 94.44 90.89 95.15 90.19 96.18 90.19 96.18"/><polygon class="cls-11" points="66.73 134.93 65.69 135.7 65.08 135.04 65.76 134.36 66.73 134.93 66.73 134.93"/><polygon class="cls-11" points="302.12 228.61 301.61 227.98 301.86 227.28 302.51 227.87 302.12 228.61 302.12 228.61"/><polygon class="cls-11" points="53.34 138.28 53.34 137.13 54.24 137.84 53.34 138.28 53.34 138.28"/><polygon class="cls-12" points="60.3 67.55 63.19 62.12 62.35 59.54 62.61 55.38 66.75 57.87 69.9 56.98 69 60.6 68.99 60.6 67.25 62.91 67.25 62.91 62.62 66.97 60.3 67.55 60.3 67.55"/><polygon class="cls-12" points="62.62 54.8 64.36 51.9 65.38 53.22 62.62 54.8 62.62 54.8"/><polygon class="cls-12" points="115.39 29.97 114.41 28.83 116.03 27.64 116.8 28.41 115.39 29.97 115.39 29.97"/><polygon class="cls-12" points="55.66 88.42 52.32 94.51 52.3 102.46 54.58 109.96 57.61 113.73 60.38 111.64 62.77 108.2 63.43 107.85 67.91 110.67 70.59 111.32 74.79 114.8 74.78 115.08 71.14 125.13 66.09 125.53 63.2 125.54 61.34 126.79 56.25 124.37 49.87 104.75 46.44 92.78 49.39 88.2 50.44 87.27 53.05 85.65 55.08 86.11 55.08 86.11 55.08 87.85 55.66 88.42 55.66 88.42"/><polygon class="cls-12" points="45.23 60.6 49.17 62 50.92 63.8 52.98 67.81 53.95 70.28 55.1 72.07 56.78 70.86 58.56 69.3 58.17 70.66 59.5 76.16 60.3 80.89 59.14 82.05 58.56 82.05 53.79 82.14 51.91 81.73 51.56 75.93 50.98 70.06 45.26 71.3 43.63 73.21 42.9 70.94 45.23 60.6 45.23 60.6"/><polygon class="cls-10" points="62.62 66.97 67.25 62.91 62.62 66.97 62.62 66.97"/><polygon class="cls-9" points="263.34 189.67 264.23 190.74 263.36 192 262.31 191.04 263.34 189.67 263.34 189.67"/><polygon class="cls-10" points="87.94 46.85 87.15 45.97 87.91 45.07 88.56 45.82 87.94 46.85 87.94 46.85"/><polygon class="cls-10" points="67.25 62.91 68.99 60.6 67.25 62.91 67.25 62.91"/><polygon class="cls-12" points="58.56 69.29 60.29 67.55 58.56 69.29 58.56 69.29"/><polygon class="cls-10" points="55.08 87.85 55.08 86.11 55.08 87.85 55.08 87.85"/><polygon class="cls-9" points="267.49 194.67 267.71 194.22 268.18 194.41 267.96 194.86 267.49 194.67 267.49 194.67"/><polygon class="cls-10" points="59.14 82.05 60.3 80.89 59.14 82.05 59.14 82.05"/><polygon class="cls-10" points="149.58 494.24 153.6 494.94 157.18 498.8 160.23 501.52 162.26 503.18 165.25 504.88 167.53 501.32 168.6 499.67 174.22 499.27 176.05 498.92 175.48 496.88 176.35 492.29 180.7 487.31 180.06 485.57 179.48 480.13 185.77 467.82 187.76 466.18 189.38 468.8 189.8 470.95 191.32 468.74 191.72 468.57 192.95 468.94 193.48 469.62 191.37 480.48 190.89 481.11 189.79 483.26 189.8 485.53 189.38 488.01 189.71 489.23 189.78 491.45 189.32 493.6 187.09 496.8 182.23 500.19 182.09 500.73 178.84 504.61 176.39 506.61 175.98 508.27 171.41 516.47 170.35 519.93 168.05 524.02 164.33 524.5 160.85 525.09 153.25 525.75 152.23 524.24 149.26 514.59 149.23 513.3 149.8 508.03 148.54 497.24 149.23 494.51 149.58 494.24 149.58 494.24"/><polygon class="cls-12" points="151.37 419.45 151.6 414.86 151.51 408.95 151.89 407.88 155.7 413.64 156.12 417.47 156.39 418.81 156.53 426.42 156.53 427.57 155.96 428.73 155.96 430.48 153.57 439.89 152.78 441.92 152.41 450.3 151.79 458.74 151.2 463.86 147.97 478.23 146.47 480.49 144.41 478.91 145.25 467.69 147.57 448.47 148.15 445.06 148.78 439.83 148.97 436.08 149.34 434.3 149.63 431.58 149.91 428.33 151.37 419.45 151.37 419.45"/><polygon class="cls-10" points="144.93 479.17 147.22 478.77 151.03 459.88 150.66 455.59 152.78 445.93 152.39 443.34 152.54 439.82 154.88 434.23 155.96 430.48 157.77 433.34 157.05 443.78 156.76 446 152.84 453.24 152.45 457.89 152.24 463.43 151.9 466.55 151.58 469.05 150.23 477.14 153.35 478.55 154.49 477.71 156.33 477.91 155.6 479.57 152.86 487.03 153.59 492.54 153.29 493.3 150.97 491.04 149.58 494.24 149.58 494.25 147.34 492.28 145.48 482.46 144.45 481.21 144.93 479.17 144.93 479.17"/><polyline class="cls-13" points="218.24 457.29 199.97 464.17 193.04 466.58 194.18 463.38 195.71 461.63 196.25 461.02 201.03 458.4 206.67 454.72 207.77 453.85 215.51 448.92 217.75 449.06 220.83 449.25 225.8 446.46 236.19 448.96 239.44 450.76 245.79 455.43 245.79 455.43 238.85 454.23 237.48 453.8 226.82 452.05 223.65 454.17 219.38 457.3"/><polygon class="cls-12" points="239.44 450.76 232.53 448.19 223.78 447.37 222.65 448.42 220.51 450.6 216.92 448.97 214.06 450.82 213.02 451.68 209.65 453.97 206.88 455.66 203.21 458.6 195.97 461.79 196.54 458.88 197.85 456.75 202.34 450.77 204.08 449.37 205.61 448.6 209.9 447.63 212.48 446.93 224.32 445.65 234.46 446.73 239.44 450.76 239.44 450.76"/><polygon class="cls-10" points="202.34 450.77 202 451.79 198.64 456.8 196.54 458.88 202.34 450.77 202.34 450.77"/><polygon class="cls-10" points="194.81 463.53 193.04 466.4 192.59 466.9 191.61 467.16 191.31 466.99 194.8 462.36 195.04 462.61 194.81 463.53 194.81 463.53"/><polygon class="cls-9" points="167.94 472.78 165.69 474.26 164.79 473.17 166.47 471.73 167.94 472.78 167.94 472.78"/><polygon class="cls-9" points="159.92 452.7 161.06 454.68 160.22 455.92 158.98 454.8 159.92 452.7 159.92 452.7"/><polygon class="cls-9" points="303.55 448.2 305.23 449.64 303.7 450.5 302.17 449.21 303.55 448.2 303.55 448.2"/><polygon class="cls-5" points="258.57 462.36 256.83 461.78 256.47 461.69 254.04 460.81 253.97 459.44 257.41 460.04 258.57 462.36 258.57 462.36"/><polygon class="cls-12" points="258.57 462.36 257.41 460.04 260.89 462.93 259.13 462.38 258.57 462.36 258.57 462.36"/><polygon class="cls-1" points="253.97 459.44 254.51 460.62 254.6 461.9 253.28 462.35 251.98 461.8 251.97 459.5 252.85 459.29 253.97 459.44 253.97 459.44"/><polygon class="cls-10" points="196.54 458.88 195.97 461.79 195.96 461.79 194.8 462.36 194.8 462.36 196.54 458.88 196.54 458.88"/><polygon class="cls-5" points="252.85 459.29 252.17 459.48 250.53 459.58 249.03 458.76 249.29 458.04 252.85 459.29 252.85 459.29"/><polygon class="cls-10" points="176.87 485.27 177.84 487 176.88 487.71 176.43 486.83 176.87 485.27 176.87 485.27"/><polygon class="cls-4" points="249.29 458.04 249.31 458.87 247.08 457.87 246.98 457.2 248.16 457.09 249.29 458.04 249.29 458.04"/><polygon class="cls-10" points="191.32 468.74 190.27 467.73 191.31 466.99 191.32 467 191.33 468.73 191.32 468.74 191.32 468.74"/><polygon class="cls-13" points="248.16 457.09 246.98 457.2 247.01 455.96 248.16 457.09 248.16 457.09"/><polygon class="cls-10" points="155.96 428.73 156.53 427.57 155.96 428.73 155.96 428.73"/><polygon class="cls-12" points="149.59 514.53 152.91 524.12 154.68 525.23 157.33 525.45 159.48 525.13 165.76 524.51 167.08 524.77 168.99 518.31 169.46 516.99 171.24 513.25 172.95 510.26 175.65 506.33 178.79 503.85 181.3 503.78 181.79 502.26 181.59 498.92 183.57 499.72 184.76 499.48 186.59 495.4 188.93 493.65 189.59 494.24 189.62 496.56 189.14 497.54 188.08 499.87 186.44 504.79 185.62 507.46 184.12 510.07 183.51 516.95 183.41 518.59 175.02 527.95 168.95 541 168.01 543.68 166.38 546.99 165.7 550.02 165.54 551.56 162.61 554.17 162.02 554.7 157.69 560.03 153.28 561.97 149.89 567.56 148.96 568.83 147 562.12 147.85 561.02 150.92 555.06 150.47 546.8 148.07 544.24 149.26 538.12 150.46 536.49 149.9 534.9 147.47 531.77 146.42 529.08 146.34 524.95 147.44 517.57 149.59 514.53 149.59 514.53"/><polygon class="cls-13" points="190.71 491.32 189 491.35 189.03 488.99 190.79 490.81 190.71 491.32 190.71 491.32"/><polygon class="cls-13" points="189.47 499.4 187.84 499.46 189 497.14 189.54 498.26 189.47 499.4 189.47 499.4"/><polygon class="cls-5" points="204.07 89.58 205.4 89.54 206.47 91.1 205.14 92.58 204.07 89.58 204.07 89.58"/><polygon class="cls-18" points="263.25 142.99 263.15 142.9 263.25 142.99 263.25 142.99"/><polyline class="cls-5" points="140.17 509.67 140.42 508.91 140.99 507.89 142.72 505.57 142.87 504.81 143.26 503.79 146.45 501.59 147.96 508.4 147.64 513.26 147.62 513.52 142.06 520.36 140.76 527.96 141.38 532.8 138.25 538.49 130.86 543.2 129.28 542.21 129.42 539.47 133.2 529.78 127.94 539.86 128.95 542.47 127.95 544.08 124.78 545.74 113.25 553.77 109.65 559.2 113.25 558.47 116.18 559.84 119.52 565.86 123.08 567.27 128.42 568.77 130.65 570 134.04 568.06 136.15 565.44 138.79 564.73 139.66 567.27 140.93 570.7 144.72 569.36 148.31 569.73 148.65 569.27 149 568.46 149 568.46 149.59 567.29 150.71 565.94 151.75 567.03 152.18 567.47 153.94 567.47 154.55 567.93 155.81 569.92 151.5 572.45 148.28 574.25 143.27 576.3 141.88 574.4 144.03 573.35 143.84 573.22 143.61 573.38 142.12 574.17 141.23 574.72 141.17 575.74 140.28 576.74 137.99 576.02 133.77 575.59 130.58 573.5 127.83 573.98 127.86 574.02 122.92 573.09 119.51 575.17 117.37 576.14 114.71 574.93 113.54 574.33 104.64 569.41 102.06 566.18 102.79 563.46 102.11 558.6 102.32 557.23 106.78 553.16 107.16 550.89 108.02 549.6 109.79 548.29 113.89 545.22 122.48 539.17 125.38 536.79 126.39 535.07 129.44 531.15 130.35 529.57 133.67 522.49 136.63 518.43 140.17 509.67"/><polygon class="cls-13" points="122.92 573.09 127.86 574.01 125.25 576.1 123.06 574.22 122.92 573.09 122.92 573.09"/><polygon class="cls-13" points="264.36 143.53 265.74 144.59 264.36 143.53 264.36 143.53"/><polygon class="cls-18" points="263.78 142.86 264.27 143.08 263.78 142.86 263.78 142.86"/><polygon class="cls-12" points="133.77 575.59 135.6 573.48 137.99 576.02 136.79 576.46 136.07 576.17 133.8 575.6 133.77 575.59 133.77 575.59"/><polygon class="cls-5" points="136.26 575.84 135.09 575.99 134.49 576.2 133.8 575.6 135.46 574.34 136.26 575.84 136.26 575.84"/><polygon class="cls-12" points="127.83 573.98 128.62 571.98 130.58 573.5 127.83 573.98 127.83 573.98"/><polygon class="cls-17" points="21.1 296.49 18.7 292.86 15.06 287.28 13.21 282.85 13.65 280.54 15.25 282.04 15.17 279.92 13.96 275.05 17.29 280.37 21.91 288.03 23.23 290.19 27.44 293.73 29.14 295.18 27.55 295.95 33.83 303.31 42.27 311.98 50.41 317.53 52.25 317.66 54.56 319.73 51.9 321.79 47.71 320 38.96 313.58 29.19 306.54 23.81 301.76 23.29 301.14 21.1 296.49 21.1 296.49"/><polygon class="cls-7" points="27.35 161.65 31.89 157.59 30.23 164.18 26.03 164.98 26.01 166.66 25.36 167.61 24.33 165.92 27.35 161.65 27.35 161.65"/><polygon class="cls-4" points="20.81 170.17 17.66 174.85 19 171.62 20.81 170.17 20.81 170.17"/><polygon class="cls-4" points="23.13 167.24 21.7 169.06 23.13 167.24 23.13 167.24"/><polygon class="cls-6" points="21.45 157.41 21.46 156.26 22.36 156.71 21.45 157.41 21.45 157.41"/><polygon class="cls-4" points="17.39 177.03 14.98 179.58 15.7 176.56 17.34 175.39 17.45 175.95 17.39 177.03 17.39 177.03"/><polygon class="cls-15" points="2.93 89.58 3.82 91.99 2.93 89.58 2.93 89.58"/><polygon class="cls-5" points="10.92 107.61 9.96 105.79 11.48 107.82 10.92 107.61 10.92 107.61"/><polygon class="cls-15" points="2.31 86.11 2.73 88.5 2.31 86.11 2.31 86.11"/><polygon class="cls-21" points="11.8 108.66 12.29 108.65 12.19 109.83 12.18 110.17 11.8 108.66 11.8 108.66"/><polygon class="cls-17" points="6.98 254.79 9.62 258.13 10.26 259.85 11.94 267.1 13.92 272.21 11.5 270.12 6.62 255.19 6.98 254.79 6.98 254.79"/><polygon class="cls-17" points="4.67 244.31 6.99 246.59 6.97 253.08 4.67 244.31 4.67 244.31"/><polygon class="cls-4" points="1.22 231.09 1.72 230.91 2.75 232.28 1.22 233.64 1.22 231.09 1.22 231.09"/><polygon class="cls-17" points="4.64 240.28 4.64 242.67 4.64 240.28 4.64 240.28"/><polygon class="cls-17" points="4.64 237.97 4.64 239.19 4.64 237.97 4.64 237.97"/><polygon class="cls-22" points="70.14 179.99 74.28 181.29 78.83 182.94 81.3 185.93 83.49 187 84.65 188.13 84.66 188.14 88.71 190.46 89.29 190.47 97.4 195.09 99.14 195.68 106.68 199.73 109.58 200.9 111.32 202.05 111.32 202.05 114.22 203.79 115.96 204.95 119.7 207.96 122.59 210.31 126.81 213.02 128.9 216.29 130.02 227.46 130.68 229.32 133.72 234.74 132.67 242.14 143.67 243.79 145.66 244.62 144.7 246.53 139.8 248.87 146.81 256.46 146.92 249.96 149.81 247.5 152.38 245.53 154.03 237.66 159.69 233.2 164.78 233.79 165.69 236.31 165.23 242 164.04 238.94 163.01 237.59 162.6 239.01 159.59 248.12 159.38 248.31 152.84 263.32 152.82 264.71 150.49 269.41 146.67 273.07 139.44 280.57 129.13 286.19 127.76 287.02 122.19 288.83 115.08 290.57 101.43 298.55 99.48 298.83 89.78 304.18 86.6 305.88 83.39 308.93 78.86 313.94 79.32 310.86 79.44 298.03 79.36 297.75 74.47 291.04 71.78 284.93 71.69 283.53 67.38 274.65 63.74 267.32 62.59 265.4 60.3 259.45 63.56 258.43 67.45 261.16 67.75 262.57 68.58 263.21 69.23 262.36 68.6 258.42 68.75 255.2 70.52 249.64 75.26 238.62 76.36 232.31 78.46 223.32 81.46 215.75 92.19 209.59 94.2 209.14 97.93 209.66 101.26 210.38 103.52 206.5 104.73 203 100.35 204.35 97.18 201.08 95.93 199.38 90.89 198.35 86.91 194.62 76.88 186.73 70.14 179.99 70.14 179.99"/><polygon class="cls-17" points="70.14 179.99 79.24 187.09 87.54 193.8 96.59 198.62 98.9 199.44 97.88 201.12 97.58 202.96 99.16 203.73 104.06 202.16 106.45 202.59 105.09 203.96 104.34 206.25 101.93 210.92 97.3 209.73 96.19 208.63 94.92 209.46 91.18 209.78 87.85 210.04 82.23 216.58 81.12 221.87 80.76 222.6 77.49 227.03 77.55 233.01 76.1 239.11 71.32 247.96 68.88 256.03 69.23 257.75 70.06 262.8 68.65 264.61 66.92 263.11 61.46 259.44 60.3 259.45 58.27 253.87 54.54 244.58 52.31 217.4 55.38 201.95 57.92 192.19 60.31 180.61 62.61 177.7 63.2 175.95 63.76 175.93 67.26 176.54 67.26 176.54 68.43 177.69 68.43 177.69 69.59 179.44 70.14 179.99 70.14 179.99"/><polyline class="cls-1" points="89.69 344.31 89.38 342.63 86.61 338.63 80.57 337.11 77.6 336.66 76.33 336.28 69.92 335.4 59.16 329.65 55.73 328.28 49.97 325.32 48.43 324.07 44.08 320.29 44.08 320.29 36.51 314.02 34.09 313.07"/><polyline class="cls-1" points="34.09 313.07 33.52 312.54 28.98 305.89 35.31 309.91 37.25 311.31 39.12 312.33 50.26 320.59 54.56 319.73 56.79 320.87 56.02 323.59 56.95 323.98 56.92 322.82 57.38 320.87 60.28 319.8 61.39 322.43 62.83 323.51 68.13 325.35 69.39 327.09 71.92 331.36 85.44 334.26 95.07 336.2 101.76 336.56 103.32 337.14 102.5 337.24 95.69 337.66 93.83 339.07 95.97 341.33 95.88 343.01 89.69 344.31"/><polygon class="cls-23" points="71.92 331.36 70.12 330.95 68.86 330.7 67.72 331.13 67.88 329.91 68.59 326.29 62.53 324.74 61.73 324.64 60.28 319.8 63.02 318.93 64.78 319.71 64.36 317.46 64.34 315.64 64.89 313.43 67.21 314.65 68.22 320.2 69.57 322.88 72.99 321.71 74.27 320.28 76.57 320.33 79.47 318.23 82.88 318.67 86.52 318.67 89.24 323.84 88.8 324.23 89.35 323.89 90.68 319.29 92.32 315.64 95.11 320.94 92.1 330.41 88.61 330.83 86.93 330.08 88.5 326.8 83.31 326.93 81.18 322.14 80.74 325.27 78.15 324.28 79.97 328.22 77.67 327.74 73.66 327.24 72.43 327.19 71.21 326.83 71.12 327.02 71.76 329.57 71.92 331.36 71.92 331.36"/><polygon class="cls-7" points="32.31 157.31 33 156.16 35.38 150.93 36.53 149.32 39.02 149.74 44.66 146.03 49.4 143.59 49.86 143.55 51.02 143.54 51.08 145.24 51.01 145.7 48.71 147.56 48.7 147.57 34.82 157.41 32.31 157.31 32.31 157.31"/><polygon class="cls-24" points="74.27 320.28 69.2 323.79 67.82 320.29 70.77 318.89 74.27 320.28 74.27 320.28"/><polygon class="cls-1" points="70.77 318.89 69.73 320.16 67.82 320.29 67.21 314.65 70.77 318.89 70.77 318.89"/><polygon class="cls-1" points="64.36 317.46 64.85 317.74 66.01 320.16 65.05 320.92 63.02 318.93 64.36 317.46 64.36 317.46"/><polygon class="cls-17" points="55.66 323.91 54.15 322.88 55.56 321.94 56.79 320.87 57.38 320.88 57.5 323.21 55.66 323.91 55.66 323.91"/><polygon class="cls-22" points="62.61 177.7 60.31 180.61 62.61 177.7 62.61 177.7"/><polygon class="cls-4" points="79.47 318.23 76.57 320.33 79.47 318.23 79.47 318.23"/><polygon class="cls-1" points="64.89 313.43 64.34 315.64 64.89 313.43 64.89 313.43"/><polygon class="cls-1" points="17.39 177.03 17.45 175.95 18.32 176.71 17.39 177.03 17.39 177.03"/><polygon class="cls-4" points="26.01 166.66 26.03 164.98 26.01 166.66 26.01 166.66"/><polygon class="cls-5" points="207.14 86.49 206.95 86.18 206.94 86.24 207.14 86.49 207.14 86.49"/><polygon class="cls-5" points="206.21 87.3 205.24 88.43 204.66 87.27 206.21 87.3 206.21 87.3"/><polygon class="cls-5" points="153.06 24.65 153.51 23.75 154.22 24.65 153.06 24.65 153.06 24.65"/><polygon class="cls-12" points="62.61 32.76 55.62 40.44 52.18 44.37 55.01 38.19 56.63 36.25 62.61 32.76 62.61 32.76"/><polygon class="cls-12" points="51.6 44.95 49.29 49.01 51.6 44.95 51.6 44.95"/><polygon class="cls-12" points="47.55 54.22 47.55 55.96 47.55 54.22 47.55 54.22"/><polygon class="cls-12" points="48.71 51.33 47.56 53.07 48.71 51.33 48.71 51.33"/><polygon class="cls-10" points="31.89 94.23 38.35 97.7 35.49 102.7 37.1 108.14 32.49 98.16 31.89 94.23 31.89 94.23"/><polygon class="cls-20" points="49.4 143.59 38.35 151.12 36.53 149.32 37.11 148.73 39.99 147.57 43.28 146.06 49.4 143.59 49.4 143.59"/><polygon class="cls-5" points="32.47 49 31.12 49.31 29.73 48.36 30.12 47.19 31.77 47.54 32.47 49 32.47 49 32.47 49"/><polygon class="cls-13" points="18.12 96.91 17.67 96.69 17.85 96.22 18.3 96.44 18.12 96.91 18.12 96.91"/><polygon class="cls-5" points="93.04 15.84 96.17 18.55 93.99 20.94 91.31 18.22 93.04 15.84 93.04 15.84"/><polygon class="cls-5" points="90.39 13.82 88.44 12.12 91.08 9.65 92.52 10.46 90.39 13.82 90.39 13.82"/><polygon class="cls-5" points="92.64 14.85 91.92 15.26 91.3 14.62 92 14.36 92.64 14.85 92.64 14.85"/><polygon class="cls-7" points="26.75 146.38 27 139.4 31.57 142.46 32.06 143.42 27.43 148.17 26.75 146.38 26.75 146.38"/><polygon class="cls-5" points="12.76 101.76 14.88 102.81 14.11 103.9 12.76 101.76 12.76 101.76 12.76 101.76"/><polygon class="cls-5" points="16.02 111.03 14.75 109.19 15.42 108.83 16.82 110.33 16.02 111.03 16.02 111.03"/><polygon class="cls-4" points="12.19 109.83 12.29 108.65 13.22 110.6 12.19 109.83 12.19 109.83"/><polygon class="cls-7" points="30.18 152.13 29.8 151.25 32.11 151.16 31.14 152.06 30.18 152.13 30.18 152.13"/><polygon class="cls-5" points="14.72 107.13 14.95 106.68 15.41 106.86 15.19 107.32 14.72 107.13 14.72 107.13"/><polygon class="cls-16" points="164.65 233.94 159.72 233.94 154.51 239.39 152.81 247.97 150.75 248.62 147.89 248.47 148.08 251.29 147.8 253.42 147.66 255.56 147.79 257.58 145.34 256.5 139.35 249.85 138.96 247.32 140.61 248.26 142.41 248.09 145.44 244.5 140.68 244.76 132.26 243.19 131.33 242.68 132.07 241.58 133.35 236.01 129.9 229.72 128.29 223.57 128.04 215.32 126.33 213.68 122.68 211.48 118.14 208.23 115.96 204.95 123.81 205.83 125.16 207.82 127.87 210.65 134.38 215.33 135.31 217.06 142.67 218.74 147.45 220.94 149.61 221.17 151.92 221.54 156.39 222.92 158.41 222.86 162.59 224.39 174.38 230.97 174.79 231.71 180.88 235.68 175.76 238.37 168.06 235.16 165.89 234.63 164.65 233.94 164.65 233.94"/><polygon class="cls-22" points="165.81 233.94 169.94 235.9 171.88 236.81 175.9 237.66 180.88 235.68 185.01 234.28 190.13 234.49 189.16 238.89 189.38 243.29 188.39 244.53 185.43 241.22 184.65 239.36 181.06 238.97 179.88 239.8 172.47 239.58 168.98 242.29 167.83 253.14 165.84 255.21 165 254.76 165.53 250.08 165.88 244.35 166.15 236.87 165.81 233.94 165.81 233.94"/><polygon class="cls-16" points="97.4 195.09 89.29 190.47 93.85 192.48 95.74 193.39 97.4 195.09 97.4 195.09"/><polygon class="cls-16" points="106.68 199.73 99.14 195.68 106.68 199.73 106.68 199.73"/><polygon class="cls-16" points="88.71 190.46 84.66 188.14 88.71 190.46 88.71 190.46"/><polygon class="cls-16" points="114.22 203.79 111.32 202.05 114.22 203.79 114.22 203.79"/><polygon class="cls-16" points="152.65 219.11 152.2 218.04 152.97 217.37 153.48 218.14 152.65 219.11 152.65 219.11"/><polygon class="cls-16" points="111.32 202.05 109.58 200.9 111.32 202.05 111.32 202.05"/><polygon class="cls-16" points="84.65 188.13 83.49 187 84.65 188.13 84.65 188.13"/><polygon class="cls-25" points="180.28 239.14 180.76 238.42 182.75 235.88 185.5 239.24 188.53 244.28 191.84 244.26 191.03 249.52 189.7 250.11 191.04 249.69 189.82 258.08 183.81 273.76 173.84 290.75 162.16 304.4 157.99 309.52 154.45 312.05 150.25 315.4 145.99 318.31 135.87 322.5 125.08 326.09 120.88 322.38 116.78 323.66 114.14 323.89 115.09 321.6 121.6 316.4 123.45 315.81 128.55 309.11 123.91 306.65 122 306.1 123.14 304.76 136.43 296.73 142.38 291.85 143.8 289.88 145.21 288.82 146.41 288.24 155.26 276.71 159.66 267.23 159.33 265.96 159.29 264.71 164.18 254.6 165.21 254.71 165.3 254.83 165.24 259.57 169.12 256.75 173.39 247.59 178.81 248.48 178.83 246.24 179.24 242.87 180.28 239.14 180.28 239.14"/><polygon class="cls-4" points="79.97 328.22 78.16 325.35 76.4 322.72 77.15 322.13 78.93 324.31 80.69 324.79 80.47 323.16 80.08 321.01 82.65 322.49 83.03 324.99 86.65 326.38 89.73 326.55 86.93 330.08 79.97 328.22 79.97 328.22"/><polygon class="cls-26" points="92.32 315.64 91.02 318.85 92.75 318.7 88.73 324.42 88.67 324.36 87.66 321.04 86.52 318.67 87.15 317.36 87.86 316.3 89.13 316.02 90.42 315.21 91.72 315.24 92.17 315.56 92.32 315.64 92.32 315.64"/><polygon class="cls-4" points="92.1 330.41 95.11 320.94 97.06 323.27 95.03 329.22 92.1 330.41 92.1 330.41"/><polygon class="cls-23" points="120.88 322.38 123.2 324.06 125.08 326.09 117.74 328.4 115.86 328.24 116.31 326.8 120.88 322.38 120.88 322.38"/><polygon class="cls-25" points="116.31 326.8 117.74 328.4 113.54 330.32 111.33 325.54 116.31 326.8 116.31 326.8"/><polygon class="cls-4" points="166.87 236.55 166.35 244.37 165.48 244.29 165.23 242 165.38 236.43 166.87 236.55 166.87 236.55"/><polygon class="cls-18" points="189.15 243.25 189.16 238.89 190.09 243.25 189.15 243.25 189.15 243.25"/><polygon class="cls-4" points="73.66 327.24 74.71 325.49 77.67 327.75 73.66 327.24 73.66 327.24"/><polygon class="cls-15" points="165.48 244.29 166.35 244.37 165.63 250.21 165.33 250.21 165.48 244.29 165.48 244.29"/><polygon class="cls-25" points="111.62 323.13 109.42 324.22 108.56 323.17 110.37 322.16 111.62 323.13 111.62 323.13"/><polygon class="cls-1" points="71.76 329.57 70.69 326.7 71.29 326.55 72.43 327.19 71.76 329.57 71.76 329.57"/><polygon class="cls-23" points="191.04 249.69 187.88 250.75 187.67 249.75 191.03 249.52 191.04 249.69 191.04 249.69"/><polygon class="cls-26" points="165.33 250.21 165.63 250.21 165.21 254.71 164.18 254.6 165.33 250.21 165.33 250.21"/><polygon class="cls-1" points="189.15 243.25 190.09 243.25 191.84 244.26 188.53 244.28 189.15 243.25 189.15 243.25"/><polygon class="cls-25" points="191.51 236.52 191.4 234.31 192.17 234.22 192.45 236.41 191.51 236.52 191.51 236.52"/><polygon class="cls-23" points="90.42 315.21 90.8 316.98 89.13 316.02 90.42 315.21 90.42 315.21"/><polygon class="cls-25" points="157.68 268.01 157.08 268.4 156.66 267.89 157.3 267.26 157.68 268.01 157.68 268.01"/><polygon class="cls-4" points="87.86 316.3 87.15 317.36 87.86 316.3 87.86 316.3"/><polygon class="cls-25" points="190.12 261.19 190.12 262.35 190.12 261.19 190.12 261.19"/><polygon class="cls-23" points="92.17 315.56 91.71 315.24 92.17 315.56 92.17 315.56"/><polygon class="cls-12" points="89.11 507.38 87.03 506.16 86.42 505.77 84.07 505.34 79.71 500.53 79.95 500.2 79.78 500.3 77.48 502.23 75.28 502.3 73.87 502.07 67.89 498.94 65.05 496.6 63.52 493.84 64.3 482.99 65.59 473.46 65.59 470.4 68.63 469.62 72.99 468.11 76 464.34 79.24 462.75 81.63 463.4 90.36 464.36 93.59 467.89 93.47 472.19 95.71 468.06 95.79 465.04 97.69 453.45 98.19 451.98 99.25 450.47 99.69 449.87 100.54 447.69 100.59 446.53 100.31 440.66 102.81 440.81 103.57 450.98 102.97 453.14 102.58 466.88 97.41 477.69 93.44 478.16 98.44 479.6 100.47 483.77 96.61 487.3 97.33 488.8 99.77 490.68 104.36 492.4 112.55 492.11 119.38 486.03 120.8 480.88 122.33 472.8 122.92 472.8 127.92 475.21 129.75 483.59 129.7 485.3 130.12 487.94 130 489.11 126.52 488.13 121.52 489.09 114.88 496.73 105.38 503.53 104.5 504.45 102.52 505.28 100.03 505.38 98.98 505.14 98.41 505.36 98.12 506.35 96.48 507.63 89.11 507.38 89.11 507.38"/><polyline class="cls-10" points="95.6 371.73 96.75 373.82 97.87 381.12 92.82 395.54 96.59 407.35 101.17 408.53 103.2 409.37 103.83 415.66 105 418.05 106.64 421.74 106.66 428.25 106.75 435.05 108.15 438.78 108.94 440.52 107.73 449.55 108.35 452.61 110.78 456.11 113.1 456.78 114.91 458.27 114.91 458.84 112.4 463.39 115.26 471.05 111.88 471.29 110.22 470.31 109.27 471.53 110.55 472.81 115.96 473.31 122.33 472.8 122.33 472.8 121.67 482.68 116.56 489.72 114.59 491.36 105.27 494.2 103.84 493.34 98.55 491.61 96.54 491.13 94.69 487.26 96.19 486.29 99.63 485 97.61 479.95 93.41 479.09 91.86 477.41 93.6 477.27 99.87 471.97 102.25 458.87 101.74 452.7 102.78 450.83 102.96 443.4 102.08 440.78 100.88 440.91 100.07 441.15 99.25 440.17 99.97 438.24 101.06 432.52 100.89 428.76 100.95 426.57 100.68 424.08 100.88 421.56 99.47 416.25 98.81 416.01 98.35 416.36 90.69 417.11 88.09 416.23 86.13 415.4"/><polygon class="cls-10" points="103.78 370.24 104.96 367.87 105.52 365.58 106.68 363.8 106.57 370.53 106.38 374.99 104.74 377.62 103.28 375.33 103.78 370.24 103.78 370.24"/><polygon class="cls-10" points="104.97 362.65 104.49 358.67 104.33 356.29 104.18 353.37 104.98 351.62 108.19 361.19 106.68 362.65 104.97 362.65 104.97 362.65"/><polyline class="cls-13" points="97.42 348.99 97.53 344.04 98.58 345.5 100.45 346.76 104.45 349.69 104.98 351.62 104.98 351.62 104.77 353.56 103.12 353.54 102.54 352.43 98.32 350.52"/><polygon class="cls-5" points="127.55 475.12 122.92 472.8 125.3 464.14 125.95 465.64 127.91 468.31 128.19 472.09 127.84 474.42 127.55 475.12 127.55 475.12"/><polygon class="cls-13" points="95.67 341.22 93.3 338.83 95.05 338.86 97.01 339.29 98.39 339.8 97.49 341.19 95.67 341.22 95.67 341.22"/><polygon class="cls-9" points="140.31 437.43 136.78 441.96 135.77 441.86 135.66 441.48 140.48 435.76 140.31 437.43 140.31 437.43"/><polygon class="cls-9" points="128.65 455.98 126.44 459.48 126.44 454.14 128.65 455.98 128.65 455.98"/><polyline class="cls-4" points="96.23 346.41 96.93 344.05 97.53 344.04 97.53 344.04 98.03 349.26"/><polygon class="cls-9" points="104.97 362.65 106.68 362.65 106.68 363.8 106.05 367.77 104.96 367.87 104.97 362.65 104.97 362.65"/><polygon class="cls-9" points="141.82 409.44 141.37 409.58 140.47 411.51 140.48 411.58 139.68 409.82 142.31 407.99 141.82 409.44 141.82 409.44"/><polygon class="cls-16" points="95.05 338.86 93.3 338.83 95.69 337.66 95.05 338.86 95.05 338.86"/><polygon class="cls-9" points="135.82 443.24 134.49 443.8 135.66 441.48 136.07 441.96 135.82 443.24 135.82 443.24"/><polygon class="cls-23" points="134.51 444.4 132.97 447.31 132.95 446.19 133.49 445.01 134.51 444.4 134.51 444.4"/><polygon class="cls-4" points="95.67 341.22 97.49 341.19 97.06 342.91 95.64 342.88 95.67 341.22 95.67 341.22"/><polygon class="cls-9" points="133.49 445.01 132.95 446.19 131.91 445.56 133.49 445.01 133.49 445.01"/><polygon class="cls-23" points="132.71 447.75 131.81 449.62 132.71 447.75 132.71 447.75"/><polygon class="cls-23" points="141.82 409.44 142.31 407.99 142.63 407.88 143.23 407.91 142.16 409.67 141.82 409.44 141.82 409.44"/><polygon class="cls-23" points="140.31 437.43 140.48 435.76 141.3 435.52 141.52 435.74 141.45 436.84 140.31 437.43 140.31 437.43"/><polygon class="cls-8" points="141.73 432.1 141.53 433.96 141.73 432.1 141.73 432.1"/><polygon class="cls-4" points="125.31 463.09 125.31 463.39 124.9 463.23 125.31 463.09 125.31 463.09"/><polygon class="cls-9" points="141.81 417.08 141.89 417.59 141.42 417.5 141.81 417.08 141.81 417.08"/><polygon class="cls-10" points="56.25 124.37 61.58 125.86 63.2 125.54 56.65 131.56 55.79 130.96 56.25 124.37 56.25 124.37"/><polygon class="cls-20" points="51.02 143.54 49.86 143.55 51.02 142.37 51.02 143.54 51.02 143.54"/><polygon class="cls-22" points="67.26 176.54 63.76 175.93 67.26 176.54 67.26 176.54"/><polygon class="cls-22" points="69.59 179.44 68.43 177.69 69.59 179.44 69.59 179.44"/><polygon class="cls-22" points="68.43 177.69 67.26 176.54 68.43 177.69 68.43 177.69"/><polygon class="cls-20" points="48.71 147.56 51.01 145.7 48.71 147.56 48.71 147.56"/><polygon class="cls-13" points="149 568.46 149 569.6 149.03 570.75 146 568.89 139.99 571.56 138.69 567.85 138.09 565.09 134.78 568.19 132.29 570.26 131.24 570.59 127.91 569.57 122.91 568.38 118.91 567.02 115.5 560.1 110.59 559.94 108.69 560.51 109.18 558.18 110.77 554.95 111.44 553.74 124.65 545.26 125.52 548.2 126.36 555.19 126.63 555.68 129.38 563.41 134.47 561.68 136.2 561.15 140.66 560.16 145.71 556.39 147.41 550.88 142.36 548.01 140.81 547.65 136.58 546.33 132.36 545.38 128.94 545.66 127.54 543.53 128.69 542.33 129.26 541.77 132.46 541.48 134.44 540.65 137.11 538.07 138.02 536.83 139.72 534.15 140.84 532.02 140.33 528.66 138.7 525.4 139.29 521.28 141.37 519.82 143.68 517.08 145.17 515.21 146.84 512.71 146.65 503.04 146.1 501.78 144.96 499.24 146.84 496.82 148.22 498.84 149.59 513.38 149.59 514.53 148.33 517.94 146.7 525.88 146.76 527.98 148.48 533.1 149.57 534.09 151.79 534.42 150.66 537.81 148.73 544.68 150.22 545.77 152.13 546.85 152.74 554.08 150.02 556.85 148.71 559.84 147.31 562.87 146.3 565.35 149 568.46 149 568.46"/><polyline class="cls-5" points="204.98 464.59 197.5 466.43 194.78 469.32 193.05 469.32 192.49 469.3 192.48 466.42 192.48 466.42 193.04 466.4 194.45 466.22 206.15 460.12"/><polyline class="cls-5" points="220.68 456.93 222.84 453.8 226 451.1 231 453.23 233.05 453.1 238.85 454.23 233.43 458.55"/><polygon class="cls-12" points="149.59 513.38 148.44 506.21 147.57 497.8 146.78 497.29 145.67 498.39 146.1 501.78 143.27 504.09 142.25 502.59 141.55 501.29 140.39 499.7 140.12 496.69 143.09 490.63 144.94 480.91 146.19 483.05 147.8 488.92 147.97 490.68 149.58 494.25 150.66 508.25 149.59 513.38 149.59 513.38"/><polygon class="cls-13" points="193.05 469.32 194.78 469.32 195.98 471.07 195.96 472.21 193.08 478.02 193.07 479.17 190.79 480.94 193.05 469.32 193.05 469.32"/><polygon class="cls-13" points="190.75 482.06 189.61 486.17 189.58 485.55 189.01 483.24 190.75 482.06 190.75 482.06"/><polygon class="cls-12" points="189.58 485.55 189.61 486.17 189.01 487.87 187.47 486.57 189.58 485.55 189.58 485.55"/><polygon class="cls-12" points="190.75 482.06 189.01 483.24 190.77 480.94 190.75 482.06 190.75 482.06"/><polygon class="cls-13" points="192.48 466.42 192.49 469.3 191.33 468.73 191.32 467 192.48 466.42 192.48 466.42"/><polygon class="cls-11" points="144.94 480.91 143.61 494.18 140.3 497.16 138.65 497.61 133.96 492.49 131.78 491.17 129.88 489 129.87 487.87 129.45 485.95 131.11 482.4 130.62 480.81 130.28 483.26 129.31 483.82 127.55 475.12 127.56 474.53 127.56 472.79 127.41 468.03 127.38 466.31 128.07 466.27 132.18 463.51 133.13 457.66 133.37 456.04 134.32 454.26 134.74 453.19 145.9 445.94 148.93 444.58 144.94 479.17 144.94 480.91 144.94 480.91"/><polygon class="cls-24" points="150.09 431.61 150.3 428.72 150.09 431.61 150.09 431.61"/><polygon class="cls-24" points="149.77 435.75 149.84 434.51 149.77 435.75 149.77 435.75"/><polygon class="cls-4" points="244.07 457.72 241.18 457.83 244.07 457.72 244.07 457.72"/><polygon class="cls-12" points="194.8 462.36 195.96 461.79 194.81 463.53 194.8 462.36 194.8 462.36"/><polygon class="cls-7" points="256.83 461.78 255.08 461.79 254.51 461.78 254.51 460.62 256.83 461.78 256.83 461.78"/><polyline class="cls-4" points="250.42 466.39 253.24 461.87 254.51 461.78 254.51 461.78 255.08 461.79 250.42 466.39"/><polygon class="cls-4" points="252.16 461.82 250.94 459 252.18 459.48 252.16 461.82 252.16 461.82"/><polygon class="cls-5" points="161.76 553.96 162.34 553.96 165.23 551.64 165.24 549.9 165.82 547 167.57 541.65 168.25 540.2 172.07 534.35 174.7 525.58 180.03 517.91 182.95 518.58 183.5 519.48 181.62 522.37 181.11 523.43 179.69 526.46 179.36 527.95 177.87 531.19 177.19 532.53 176.15 534.46 175.79 535.15 172.37 542.3 172.07 543.43 171.58 544.89 171.14 547.14 170.96 548.34 170.62 549.1 169.69 556.7 167.31 560.8 165.82 561.92 165.42 563 164.21 565.45 160.09 567.36 159.67 568.03 158.17 569.34 156.99 569.31 154.22 567.87 154.22 567.87 153.88 566.56 157.36 560.81 161.76 553.96 161.76 553.96"/><polygon class="cls-13" points="161.76 553.96 157.81 561.07 157.27 561.64 154.43 566.5 154.22 567.87 151.9 567.87 151.31 567.86 150.86 566.41 149.59 567.29 148.74 565.17 153.6 561.04 159.78 556.66 161.76 553.96 161.76 553.96"/><polygon class="cls-5" points="183.94 515.17 183.06 516.87 181.03 514.13 182.65 509.71 185 506.34 186.08 504.67 186.3 506.05 183.94 515.17 183.94 515.17"/><polygon class="cls-13" points="165.23 551.64 162.34 553.96 165.23 551.64 165.23 551.64"/><polygon class="cls-13" points="165.82 547 165.24 549.9 165.82 547 165.82 547"/><polygon class="cls-7" points="193.08 478.02 195.96 472.21 193.08 478.02 193.08 478.02"/><polygon class="cls-4" points="168.13 560.91 166.99 560.93 169.4 556.83 171.24 556.77 168.13 560.91 168.13 560.91"/><polygon class="cls-12" points="127.54 543.53 131.32 544.86 137.99 546.74 140.66 546.86 143.16 547.54 146.62 549.87 148.87 550.63 147.63 552.37 146.4 556.18 144.66 560.27 140.82 561.15 140.01 560.88 136.94 561.51 133.17 561.63 131 562.12 129.73 564.15 128.21 561.71 125 560.96 126.04 557.47 125.7 555.42 124.79 548.16 124.65 545.26 127.54 543.53 127.54 543.53"/><polygon class="cls-7" points="129.26 541.77 128.69 542.33 127.36 539.33 128.24 536.65 134.19 527.33 135.27 527.86 129.26 541.77 129.26 541.77"/><polygon class="cls-7" points="103.28 555.15 107.74 550.83 108.18 554.84 107.63 556.21 104.84 558.41 102.78 557.54 102.69 556.88 103.28 555.15 103.28 555.15"/><polygon class="cls-12" points="142.11 573.98 142.34 572.65 146.01 572.97 142.3 574.17 142.14 574.14 142.11 573.98 142.11 573.98"/><polygon class="cls-13" points="156.04 570.01 155.83 570.02 154.22 567.87 157.29 569.64 156.42 570.03 156.26 569.39 156.04 570.01 156.04 570.01"/><polygon class="cls-12" points="140.77 574.21 140.71 575.39 139.23 574.5 140.77 574.21 140.77 574.21"/><polygon class="cls-7" points="110.08 571.23 109.39 571.78 108.69 571.46 109.18 570.91 110.08 571.23 110.08 571.23"/><polygon class="cls-7" points="108.65 549.98 110.05 548.48 108.65 549.98 108.65 549.98"/><polygon class="cls-4" points="125.9 537.19 126.95 535.38 125.9 537.19 125.9 537.19"/><polygon class="cls-12" points="151.31 567.86 151.9 567.87 151.14 568.75 151.31 567.86 151.31 567.86"/><polygon class="cls-10" points="149.03 570.75 149 569.6 149.91 570.3 149.03 570.75 149.03 570.75"/><polygon class="cls-4" points="130.03 531.41 130.72 529.88 130.03 531.41 130.03 531.41"/><polygon class="cls-18" points="141.45 507.01 141.69 508.34 140.94 508.94 141.45 507.01 141.45 507.01"/><polygon class="cls-12" points="143.05 505.81 143.1 505.21 143.05 505.81 143.05 505.81"/><polygon class="cls-15" points="5.8 193.36 5.93 193.12 6.04 193.23 5.8 193.36 5.8 193.36"/><polygon class="cls-17" points="166.87 236.55 165.38 236.42 164.65 233.94 165.81 233.94 166.87 236.55 166.87 236.55"/><polygon class="cls-23" points="90.17 342.32 87.16 338.22 88.5 338.7 90.17 342.32 90.17 342.32"/><polygon class="cls-4" points="55.66 323.91 57.5 323.21 58.31 324.57 55.66 323.91 55.66 323.91"/><polygon class="cls-24" points="71.29 326.55 70.69 326.7 69.82 325.44 70.47 325.05 71.29 326.55 71.29 326.55"/><polygon class="cls-26" points="88.73 324.42 88.57 324.64 88.67 324.36 88.73 324.42 88.73 324.42"/><polygon class="cls-3" points="24.36 126.69 24.49 126.45 24.35 126.69 24.36 126.69 24.36 126.69"/><polygon class="cls-17" points="180.28 239.14 179.79 243.47 179.5 245.52 179.11 248.12 175.67 247.65 169.92 252.03 170.01 255.67 169.99 257.72 168.35 257.41 166.34 258 164.77 261.6 164.78 257.65 165.3 254.83 168.02 248.73 168.13 240.68 171.49 238.06 180.28 239.14 180.28 239.14"/><polygon class="cls-23" points="154.65 305.86 156.63 303.43 158.79 303.05 159.3 303.88 157.87 305.51 154.65 305.86 154.65 305.86"/><polygon class="cls-15" points="179.5 245.52 179.79 243.47 181.02 244.78 179.5 245.52 179.5 245.52"/><polygon class="cls-17" points="164.43 263.35 164.21 263.8 163.75 263.62 163.96 263.17 164.43 263.35 164.43 263.35"/><polygon class="cls-5" points="75.67 502.52 65.06 500.78 60.3 500.03 57.5 501.42 53.78 494.86 55.05 487.93 58.12 478.75 60.35 476.15 61.6 474.64 63.45 472.78 64.73 470.51 65.45 470.27 65.69 470.59 65.52 470.79 65.91 475.11 65 478.56 65.28 483.88 64.15 494.23 65.03 495.69 69.69 500.81 71.44 501.42 75.46 501.99 75.67 502.52 75.67 502.52"/><polygon class="cls-5" points="90.43 464.69 84.78 463.89 82.11 464.13 78.96 463.46 77.32 462.66 76.63 464.37 74.4 468.3 68.56 470.16 68.72 468.2 71.55 464.24 72.77 462.33 73.93 461.43 75.27 460.22 79.27 457.47 81.01 456.57 83.61 455.55 85.23 455.48 89.19 455.6 93.61 454.97 95.73 455.28 92.99 464.57 90.43 464.69 90.43 464.69"/><polyline class="cls-5" points="124.26 495.42 116.94 497.77 113.97 499.85 105.75 503.94 105 503.57 107.07 500.84 118.09 493.28 120.89 488.37 123.05 485.81 126.95 487.3 129.88 489 129.88 489 131.61 490.76 133.77 495.46"/><polyline class="cls-7" points="122.81 498.56 113.17 502.07 104.54 506.48 104.36 504.16 105 503.57 105 503.57 114.13 498.44 119.47 495.67 126.55 493.07 128.44 493.7 133.35 495.43"/><polygon class="cls-13" points="90.43 464.69 95.62 457.86 95.66 455.4 97.63 452.8 97.99 453.09 97.99 458.06 97.37 463.17 97.05 469.39 93.66 473.31 91.9 472.87 92.69 471.45 91.97 467.82 90.43 464.69 90.43 464.69"/><polygon class="cls-5" points="84.66 505.87 78.83 506.71 76.37 505.86 76.31 504.75 77.28 503.83 77.55 502.12 80.01 500.04 80.01 500.04 84.62 504.67 84.66 505.87 84.66 505.87"/><polygon class="cls-5" points="98.57 451.93 97.99 453.09 97.96 453.05 97.02 448 96.53 446.56 97.08 445.18 99.7 443.64 100.88 446.71 100.89 447.86 99.73 450.19 99.72 450.76 98.57 451.93 98.57 451.93"/><polygon class="cls-13" points="100.88 446.71 99.72 443.8 100.3 440.92 100.88 440.91 101.63 445.36 100.88 446.71 100.88 446.71"/><polygon class="cls-1" points="129.31 483.82 129.89 483.27 131.63 482.57 129.88 485.56 129.29 485.55 129.31 483.82 129.31 483.82"/><polygon class="cls-5" points="129.29 485.55 129.88 485.56 129.87 487.87 128.18 486.85 129.29 485.55 129.29 485.55"/><polygon class="cls-4" points="84.66 505.87 84.62 504.67 87.01 505.8 84.66 505.87 84.66 505.87"/><polygon class="cls-13" points="99.73 450.19 100.89 447.86 101.83 448.63 99.73 450.19 99.73 450.19"/><polygon class="cls-7" points="102.58 504.66 102.62 505.76 99.92 506.01 99.86 504.73 102.58 504.66 102.58 504.66"/><polygon class="cls-5" points="80.01 500.04 80.32 498.01 81.2 498.38 80.01 500.04 80.01 500.04 80.01 500.04"/><polygon class="cls-10" points="99.86 504.73 99.92 506.01 98.51 505.94 98.32 504.94 98.56 504.68 99.86 504.73 99.86 504.73"/><polygon class="cls-10" points="98 504.69 97.8 503.81 98.56 504.68 98.56 504.69 98 504.69 98 504.69"/><polygon class="cls-13" points="98.57 451.93 99.72 450.76 98.57 451.93 98.57 451.93"/><polygon class="cls-5" points="98 504.69 98.56 504.69 98.51 505.94 97.99 505.87 98 504.69 98 504.69"/><polyline class="cls-7" points="89.32 418.79 88.06 415.51 93.06 415.3 95.17 415.53 98.56 415.98 99.63 416.04 101.46 421.2 94.77 419.34 90.4 418.75 90.4 418.75 89.84 418.97"/><polygon class="cls-4" points="90.4 418.75 93.31 417.9 101.46 421.2 101.47 424.09 90.4 418.75 90.4 418.75"/><polygon class="cls-12" points="100.79 433.36 101.35 432.81 103.29 434.6 100.26 438.57 100.41 434.58 100.79 433.36 100.79 433.36"/><polygon class="cls-12" points="98.69 441.63 99.64 440.18 100.3 440.92 99.72 443.8 97.26 445.51 98.69 441.63 98.69 441.63"/><polyline class="cls-4" points="86.36 414.87 88.06 415.51 89.31 418.79"/><polygon class="cls-11" points="99.63 416.04 98.56 415.98 99.52 414.33 100.61 415.06 99.63 416.04 99.63 416.04"/><polygon class="cls-7" points="101.65 428.24 101.71 426.9 101.65 428.24 101.65 428.24"/><polygon class="cls-23" points="135.82 443.24 136.07 441.96 136.78 441.96 135.82 443.24 135.82 443.24"/><polygon class="cls-4" points="103.06 355.17 103.29 353.28 104.77 353.55 104.76 356.35 103.71 356.37 103.06 355.17 103.06 355.17"/><polygon class="cls-11" points="140.47 411.51 141.37 409.58 140.47 411.51 140.47 411.51"/><polyline class="cls-4" points="98.6 350.43 103.01 352.32 100.84 353.9"/><polygon class="cls-4" points="127.38 466.31 127.41 468.03 125.52 465.69 127.38 466.31 127.38 466.31"/><polygon class="cls-12" points="127.56 472.79 127.56 474.53 127.56 472.79 127.56 472.79"/><polyline class="cls-7" points="136.9 498.23 138.6 497.19 140.3 497.16 140.94 499.97 140.94 499.97 136.8 498.33"/><polygon class="cls-7" points="141.51 502.26 142 501.2 142.63 502.34 141.51 502.26 141.51 502.26"/><polyline class="cls-12" points="133.35 495.43 131.61 490.76 138.6 497.19 138.6 497.19 136.9 498.23"/><polygon class="cls-12" points="131.63 482.57 129.89 483.27 129.86 482.7 130.01 479.89 131.53 479.93 131.63 482.57 131.63 482.57"/><polygon class="cls-12" points="134.86 481.24 133.63 481.79 132.97 481.25 133.76 480.57 134.86 481.24 134.86 481.24"/><polygon class="cls-24" points="175.51 534.66 171.78 542.44 175.51 534.66 175.51 534.66"/><polygon class="cls-24" points="164.15 565.28 159.46 567.3 164.15 565.28 164.15 565.28"/><polygon class="cls-23" points="182.86 519.47 181.05 522.15 182.86 519.47 182.86 519.47"/><polygon class="cls-23" points="180.7 523.03 179.74 526.14 179.04 526.14 180.7 523.03 180.7 523.03"/><polygon class="cls-15" points="179.04 526.14 179.74 526.14 179.71 526.12 179.88 526.47 179.74 526.66 179.91 528.13 178.95 527.49 179.04 526.14 179.04 526.14"/><polygon class="cls-24" points="176.53 532.26 175.72 534.27 176.53 532.26 176.53 532.26"/><polygon class="cls-24" points="171.71 543.54 171.26 544.78 171.71 543.54 171.71 543.54"/><polygon class="cls-3" points="170.49 547 171.34 547.56 170.21 548.08 170.49 547 170.49 547"/><polygon class="cls-4" points="165.15 562.57 164.62 562.65 165.11 561.41 165.15 562.57 165.15 562.57"/><polygon class="cls-24" points="159.25 567.63 158.32 569.06 159.25 567.63 159.25 567.63"/><polygon class="cls-23" points="179.74 526.66 179.71 526.12 180.28 526.14 179.74 526.66 179.74 526.66"/><polygon class="cls-5" points="156.04 570.01 156.33 569.56 156.43 570.03 156.23 570.05 156.04 570.01 156.04 570.01"/><polygon class="cls-7" points="92.15 455.29 94.52 451.93 96.44 447.24 97.98 447.28 97.96 453.05 95.66 455.4 93.34 455.41 92.27 455.97 92.15 455.29 92.15 455.29"/><polygon class="cls-7" points="69.67 465.26 71.92 464.18 69.18 468.2 69.02 467.01 69.67 465.26 69.67 465.26"/><polygon class="cls-13" points="92.15 455.29 93.34 455.41 89.27 455.87 92.15 455.29 92.15 455.29"/><polygon class="cls-15" points="81.17 457.13 83.49 456 81.17 457.13 81.17 457.13"/><polygon class="cls-24" points="74.34 462 75.53 460.71 74.34 462 74.34 462"/><polygon class="cls-12" points="76.58 504.68 77.38 503.81 78.17 505.12 76.58 504.68 76.58 504.68"/><polygon class="cls-12" points="97.98 447.28 96.45 447.24 96.67 446.68 97.98 447.28 97.98 447.28"/><polygon class="cls-4" points="76.53 380.28 78.29 378.9 76.53 380.28 76.53 380.28"/></g></g></svg>